<svg width="9" height="16" viewBox="0 0 9 16" fill="none" xmlns="http://www.w3.org/2000/svg">
<path d="M3.73052 0.649999C3.73052 0.291014 4.02153 -7.0319e-07 4.38052 -7.65957e-07C4.7395 -8.28724e-07 5.03052 0.291014 5.03052 0.649999L5.03052 14.35C5.03052 14.709 4.7395 15 4.38052 15C4.02153 15 3.73052 14.709 3.73052 14.35L3.73052 0.649999Z" fill="#3C3D75"/>
<path d="M0.190138 11.3788C-0.0637023 11.125 -0.0637025 10.7134 0.190138 10.4596C0.443979 10.2057 0.855536 10.2057 1.10938 10.4596L4.82456 14.1748C5.0784 14.4286 5.0784 14.8402 4.82456 15.094C4.57072 15.3478 4.15917 15.3478 3.90532 15.094L0.190138 11.3788Z" fill="#3C3D75"/>
<path d="M8.53782 11.3788C8.79166 11.125 8.79166 10.7134 8.53782 10.4596C8.28398 10.2057 7.87242 10.2057 7.61858 10.4596L3.94456 14.1336C3.69072 14.3874 3.69072 14.799 3.94456 15.0528C4.1984 15.3067 4.60996 15.3067 4.8638 15.0528L8.53782 11.3788Z" fill="#3C3D75"/>
</svg>
