<svg width="374" height="542" viewBox="0 0 374 542" fill="none" xmlns="http://www.w3.org/2000/svg">
<g filter="url(#filter0_f)">
<path d="M217.02 216.26H262.747L250.104 255.531L262.747 322.238L217.02 350.212V216.26Z" fill="black" fill-opacity="0.5"/>
</g>
<g filter="url(#filter1_f)">
<path d="M101.359 318.584L133.222 305.024L139.791 344.908L174.722 402.539L153.813 441.839L101.359 318.584Z" fill="black" fill-opacity="0.5"/>
</g>
<g filter="url(#filter2_f)">
<path d="M225.893 250.959L240.687 216.805L266.778 200.626L345.423 200.626L399.924 189.093L325.685 273.822L225.893 250.959Z" fill="black" fill-opacity="0.5"/>
</g>
<g filter="url(#filter3_f)">
<path d="M93.1824 150.116L132.054 126.034L141.989 166.076L187.867 216.125L163.728 263.987L93.1824 150.116Z" fill="black" fill-opacity="0.5"/>
</g>
<g filter="url(#filter4_d)">
<path d="M44.008 443.652C45.5782 445.959 47.9947 450.795 47.9947 450.795C47.9947 450.795 43.957 447.859 41.657 446.887C38.4403 445.528 35.7897 448.443 32.7162 446.786C28.2018 444.351 32.6035 437.444 28.5198 434.341C25.9271 432.371 20.5189 431.992 20.5189 431.992C20.5189 431.992 27.1147 430.273 30.5678 432.139C34.298 434.154 32.7553 439.002 36.2652 441.38C38.8741 443.147 42.2345 441.048 44.008 443.652Z" fill="#6CB2C3"/>
</g>
<g filter="url(#filter5_d)">
<path d="M47.5427 429.385C47.9567 430.975 48.3386 434.137 48.3386 434.137C48.3386 434.137 46.6808 431.708 45.5973 430.713C44.0822 429.322 42.0341 430.413 40.6575 428.885C38.6356 426.639 42.4466 423.68 40.7963 421.149C39.7484 419.542 36.8233 418.26 36.8233 418.26C36.8233 418.26 40.823 418.614 42.3689 420.333C44.0389 422.191 42.222 424.574 43.6978 426.589C44.7948 428.087 47.0752 427.588 47.5427 429.385Z" fill="#6CB2C3"/>
</g>
<g filter="url(#filter6_d)">
<path d="M31.0625 350.128C32.161 351.543 33.9031 354.546 33.9031 354.546C33.9031 354.546 31.1981 352.825 29.6852 352.295C27.5695 351.553 25.9873 353.526 23.9514 352.587C20.9609 351.208 23.5056 346.605 20.7644 344.78C19.024 343.621 15.5431 343.595 15.5431 343.595C15.5431 343.595 19.7012 342.229 21.9888 343.286C24.4599 344.429 23.6651 347.597 26.0096 348.981C27.7523 350.009 29.8218 348.529 31.0625 350.128Z" fill="#6CB2C3"/>
</g>
<path d="M184.535 441.935C184.535 441.935 207.263 447.841 216.777 442.473C225.48 437.563 231.033 421.224 231.033 421.224" stroke="white"/>
<path d="M46.2434 366.083C46.2434 366.083 69.9796 356.45 75.5623 366.083C89.2803 389.753 29.2389 440.899 61.5753 469.91C94.1955 499.175 170.782 444.087 170.782 444.087" stroke="white"/>
<path d="M205.21 342.682C205.21 342.682 172.441 355.055 162.981 383.298C153.52 411.541 162.981 437.094 162.981 437.094" stroke="white"/>
<path d="M105.69 241.813C105.69 241.813 59.1487 262.442 61.8463 289.692C63.7592 309.016 77.207 305.673 84.7097 323.584C89.5016 335.023 90.6273 354.785 90.6273 354.785" stroke="white"/>
<g filter="url(#filter7_d)">
<path d="M38.7304 307.381C41.2074 306.097 46.2972 304.274 46.2972 304.274C46.2972 304.274 42.9004 307.933 41.6617 310.101C39.9293 313.133 42.5072 316.112 40.4955 318.966C37.5407 323.158 31.2069 317.965 27.6393 321.649C25.3742 323.989 24.3541 329.313 24.3541 329.313C24.3541 329.313 23.4333 322.56 25.6969 319.354C28.1421 315.89 32.7718 318 35.5512 314.798C37.617 312.418 35.9327 308.832 38.7304 307.381Z" fill="#6CB2C3"/>
</g>
<g filter="url(#filter8_d)">
<path d="M270.344 375.11C272.821 373.826 277.911 372.003 277.911 372.003C277.911 372.003 274.514 375.662 273.275 377.83C271.543 380.862 274.121 383.841 272.109 386.695C269.154 390.887 262.82 385.693 259.253 389.378C256.987 391.717 255.967 397.042 255.967 397.042C255.967 397.042 255.047 390.288 257.31 387.082C259.755 383.619 264.385 385.728 267.164 382.527C269.23 380.147 267.546 376.56 270.344 375.11Z" fill="#6CB2C3"/>
</g>
<g filter="url(#filter9_d)">
<path d="M370.073 380.152C371.939 379.704 375.64 379.328 375.64 379.328C375.64 379.328 372.766 381.21 371.58 382.453C369.922 384.191 371.151 386.607 369.336 388.18C366.669 390.491 363.298 385.975 360.306 387.846C358.407 389.034 356.845 392.421 356.845 392.421C356.845 392.421 357.347 387.758 359.389 385.991C361.594 384.083 364.337 386.257 366.723 384.579C368.496 383.331 367.964 380.658 370.073 380.152Z" fill="#6CB2C3"/>
</g>
<path d="M187.452 432.252C187.452 432.252 192.713 408.4 205.474 400.781C225.852 388.615 254.966 409.389 287.782 393.25C316.877 378.941 303.921 315.783 303.921 315.783" stroke="white"/>
<g filter="url(#filter10_d)">
<path d="M300.669 307.596L297.291 305.884C297.291 305.884 296.922 310.471 298.313 314.435C299.595 318.089 302.856 318.825 304.725 318.534C307.384 318.121 309.348 316.501 309.575 313.09C309.84 309.108 308.554 304.539 308.554 304.539L305.674 306.998L303.131 305.186L300.669 307.596Z" fill="#FF9090"/>
</g>
<g filter="url(#filter11_d)">
<path d="M37.6425 369.667L35.857 373.006C35.857 373.006 40.4349 373.476 44.4283 372.172C48.1099 370.97 48.9168 367.726 48.667 365.851C48.3117 363.184 46.7358 361.185 43.3299 360.883C39.3546 360.531 34.7586 361.717 34.7586 361.717L37.1543 364.65L35.2875 367.153L37.6425 369.667Z" fill="#FF9090"/>
</g>
<g filter="url(#filter12_d)">
<path d="M231.67 413.003L229.447 409.938C229.447 409.938 227.024 413.85 226.451 418.011C225.922 421.848 228.487 423.992 230.283 424.587C232.837 425.433 235.324 424.89 237.084 421.958C239.138 418.537 240.081 413.885 240.081 413.885L236.396 414.758L234.961 411.984L231.67 413.003Z" fill="#FF9090"/>
</g>
<g filter="url(#filter13_d)">
<path d="M315.525 336.974C313.262 338.608 308.495 341.157 308.495 341.157C308.495 341.157 311.319 337.039 312.227 334.713C313.496 331.461 310.51 328.891 312.081 325.773C314.39 321.193 321.417 325.403 324.406 321.236C326.304 318.589 326.533 313.173 326.533 313.173C326.533 313.173 328.433 319.719 326.664 323.222C324.752 327.006 319.863 325.598 317.583 329.172C315.888 331.829 318.08 335.13 315.525 336.974Z" fill="#6CB2C3"/>
</g>
<g filter="url(#filter14_d)">
<path d="M167.587 402.606C165.324 404.239 160.557 406.788 160.557 406.788C160.557 406.788 163.381 402.671 164.289 400.345C165.558 397.092 162.572 394.523 164.143 391.405C166.452 386.825 173.479 391.035 176.468 386.867C178.366 384.221 178.595 378.805 178.595 378.805C178.595 378.805 180.495 385.351 178.726 388.854C176.814 392.638 171.925 391.23 169.645 394.804C167.95 397.46 170.142 400.762 167.587 402.606Z" fill="#6CB2C3"/>
</g>
<g filter="url(#filter15_d)">
<path d="M301.581 353.191C302.079 355.936 302.321 361.337 302.321 361.337C302.321 361.337 299.825 357.013 298.119 355.191C295.732 352.642 292.125 354.228 289.991 351.465C286.855 347.406 293.684 342.883 291.214 338.388C289.645 335.535 284.858 332.991 284.858 332.991C284.858 332.991 291.583 334.101 293.98 337.208C296.569 340.565 293.19 344.368 295.43 347.967C297.096 350.643 301.019 350.09 301.581 353.191Z" fill="#6CB2C3"/>
</g>
<g filter="url(#filter16_d)">
<path d="M65.1187 245.661C66.6401 246.607 69.3161 248.819 69.3161 248.819C69.3161 248.819 66.1821 248.144 64.5791 248.171C62.3373 248.21 61.5386 250.61 59.3033 250.436C56.02 250.18 56.8089 244.98 53.6046 244.22C51.5702 243.737 48.2965 244.921 48.2965 244.921C48.2965 244.921 51.7223 242.197 54.2346 242.395C56.9485 242.608 57.3029 245.856 59.9819 246.339C61.9731 246.699 63.4003 244.593 65.1187 245.661Z" fill="#6CB2C3"/>
</g>
<path d="M159.487 438.17C159.487 438.17 139.33 451.663 120.215 448.122C82.8243 441.197 93.7763 391.682 64.2673 367.697C49.6111 355.784 33.2204 352.689 24.4585 335.957C15.0919 318.071 31.9899 287.81 31.9899 287.81" stroke="white"/>
<g filter="url(#filter17_d)">
<path d="M33.5754 277.629L31.4276 274.51C31.4276 274.51 28.9096 278.362 28.236 282.509C27.615 286.332 30.1274 288.537 31.908 289.175C34.4408 290.083 36.9399 289.6 38.7706 286.712C40.9074 283.342 41.9622 278.714 41.9622 278.714L38.2575 279.497L36.89 276.69L33.5754 277.629Z" fill="#FF9090"/>
</g>
<g filter="url(#filter18_d)">
<path d="M132.192 209.839L137.859 188.223L150.031 175.212L153.834 214.108L132.192 209.839Z" fill="#2A3068"/>
</g>
<g filter="url(#filter19_d)">
<path d="M158.281 214.22C148.57 208.118 138.719 216.934 138.719 216.934L134.795 239.786L187.148 307.661L147.972 317.712C147.972 317.712 123.744 324.331 107.467 330.323C101.468 332.531 94.1658 334.574 90.856 340.043C85.9654 348.124 85.5732 357.097 88.009 364.81C91.3411 375.36 99.1288 379.796 107.228 387.334C117.483 396.878 137.339 410.465 150.723 429.976C157.035 439.176 159.014 444.267 165.514 453.335C171.835 462.153 179.559 466.302 184.212 475.201C185.686 478.022 181.896 479.247 182.644 482.34C183.261 484.889 183.843 485.564 186.167 486.778C188.491 487.993 195.555 483.078 198.002 477.384C199.223 474.543 198.013 472.474 197.114 469.515C194.621 461.311 190.939 457.805 190.438 449.627C190.147 444.883 190.531 442.319 191.532 437.505C192.597 432.386 191.444 427.892 187.156 424.903C183.21 422.151 178.083 425.761 173.689 423.803C166.653 420.666 164.703 416.045 160.699 409.463C155.422 400.791 152.806 384.769 143.503 371.936C141.098 368.618 136.979 363.717 136.979 363.717C136.979 363.717 181.193 363.721 208.485 357.598C223.448 354.24 234.296 352.279 243.654 340.131C251.271 330.243 252.761 317.093 250.649 310.463C246.013 295.91 240.46 282.938 222.68 270.502C214.246 264.603 203.13 257.351 189.125 242.745C178.605 231.775 171.15 222.308 158.281 214.22Z" fill="#2B3068"/>
</g>
<g filter="url(#filter20_d)">
<path d="M165.773 171.435L147.305 174.792L151.922 218.024L171.649 192.001L165.773 171.435Z" fill="#373C76"/>
</g>
<g filter="url(#filter21_d)">
<path d="M102.391 171.854C100.196 169.508 98.9111 167.846 97.5646 164.929C96.365 162.33 95.8858 160.732 95.8857 157.793C95.8857 154.883 97.1871 152.618 99.8731 151.498C103.26 150.085 105.14 151.329 108.601 152.547C111.938 153.721 117.176 156.208 120.723 152.547C122.171 151.052 122.738 149.31 123.061 147.047C123.284 145.49 123.729 143.49 125.063 142.153C127.369 139.844 129.769 140.375 133.031 140.375C145.833 140.375 152.908 139.773 164.93 143.103C177.565 146.602 181.124 147.451 189.578 152.386C196.848 156.632 201.016 159.122 207.113 164.929C211.057 168.686 216.976 174.792 216.976 174.792L184.028 203.334L150.875 216.26C150.875 216.26 158.896 204.935 159.894 203.334C162.258 199.538 163.671 198.087 165.35 193.26C166.226 190.742 166.693 186.018 164.93 182.137C163.078 178.058 160.523 175.632 156.536 174.373C155.051 173.904 153.561 174.18 152.129 174.792C149.364 175.975 149.191 178.36 148.771 181.718C148.275 185.684 147.82 189.766 143.944 190.742C140.977 191.489 139.327 188.181 137.648 188.433C136.444 188.614 135.866 189.867 134.71 189.483C133.774 189.171 133.031 187.594 133.031 187.594C133.031 187.594 131.68 188.5 130.723 188.433C129.331 188.336 129.345 186.477 127.995 186.125C125.303 185.424 126.646 189.862 124.007 190.742C121.368 191.622 115.613 181.298 112.465 177.311C111.5 176.088 111.459 177.051 109.946 176.681C106.958 175.95 104.494 174.1 102.391 171.854Z" fill="#33386F"/>
</g>
<mask id="mask0" mask-type="alpha" maskUnits="userSpaceOnUse" x="95" y="140" width="122" height="77">
<path d="M102.393 171.853C100.197 169.507 98.9129 167.845 97.5664 164.928C96.3667 162.329 95.8875 160.731 95.8875 157.792C95.8874 154.882 97.1888 152.617 99.8748 151.497C103.262 150.084 105.141 151.328 108.603 152.546C111.94 153.72 117.177 156.207 120.725 152.546C122.173 151.051 122.74 149.309 123.063 147.046C123.285 145.489 123.73 143.489 125.065 142.152C127.37 139.843 129.77 140.374 133.033 140.374C145.835 140.374 152.91 139.772 164.932 143.102C177.566 146.601 181.126 147.45 189.579 152.385C196.85 156.631 201.018 159.121 207.115 164.928C211.059 168.685 216.978 174.791 216.978 174.791L184.03 203.333L150.877 216.259C150.877 216.259 158.898 204.934 159.895 203.333C162.26 199.537 163.673 198.086 165.352 193.259C166.228 190.741 166.694 186.017 164.932 182.137C163.079 178.057 160.525 175.631 156.538 174.372C155.053 173.903 153.562 174.179 152.131 174.791C149.366 175.974 149.192 178.359 148.773 181.717C148.277 185.683 147.822 189.765 143.946 190.741C140.979 191.488 139.329 188.18 137.65 188.432C136.445 188.614 135.868 189.866 134.712 189.482C133.776 189.17 133.033 187.593 133.033 187.593C133.033 187.593 131.682 188.499 130.725 188.432C129.332 188.335 129.347 186.476 127.996 186.124C125.304 185.423 126.648 189.861 124.009 190.741C121.37 191.621 115.615 181.297 112.467 177.31C111.502 176.088 111.461 177.05 109.948 176.68C106.96 175.949 104.495 174.099 102.393 171.853Z" fill="#465775"/>
</mask>
<g mask="url(#mask0)">
<g filter="url(#filter22_f)">
<path d="M276.761 165.884L262.922 209.466L229.319 185.532L161.913 177.393L149.09 125.345L276.761 165.884Z" fill="black" fill-opacity="0.5"/>
</g>
<g filter="url(#filter23_f)">
<path d="M162.875 237.884L126.662 265.804L112.695 226.984L61.9526 181.875L81.0852 131.8L162.875 237.884Z" fill="white" fill-opacity="0.2"/>
</g>
</g>
<g filter="url(#filter24_d)">
<path d="M233.85 203.998C230.038 193.18 222.015 181.508 222.015 181.508L199.56 209.42V289.167L157.588 270.909C157.588 270.909 134.283 262.285 117.714 260.626C111.353 259.989 108.806 258.4 102.813 260.626C93.9586 263.915 88.0723 270.699 85.185 278.254C81.2353 288.589 84.5769 296.906 86.2343 307.845C88.3329 321.696 95.4362 344.683 93.7894 368.285C93.0128 379.415 91.3981 384.634 90.8513 395.777C90.3196 406.614 93.7894 414.665 91.9006 424.528C91.3021 427.654 87.5714 426.257 86.2343 429.145C85.1326 431.525 85.1692 432.415 86.2343 434.812C87.2995 437.208 95.888 437.75 101.344 434.812C104.067 433.345 104.406 430.973 105.542 428.096C108.69 420.121 107.985 415.085 112.677 408.369C115.399 404.472 117.294 402.703 121.071 399.555C125.088 396.208 126.979 391.971 125.479 386.963C124.098 382.355 117.839 381.995 115.615 377.729C112.054 370.898 113.4 366.066 114.356 358.422C115.615 348.348 123.527 334.173 124.219 318.338C124.399 314.244 124.219 307.845 124.219 307.845C124.219 307.845 158.847 335.337 184.03 347.509C197.837 354.182 207.552 359.39 222.435 355.694C234.549 352.685 243.363 343.086 246.359 336.806C252.282 324.39 253.904 309.962 247.71 289.167C244.772 279.304 239.377 265.995 237.488 245.848C236.07 230.715 238.901 218.333 233.85 203.998Z" fill="#33386F"/>
</g>
<mask id="mask1" mask-type="alpha" maskUnits="userSpaceOnUse" x="83" y="181" width="169" height="256">
<path d="M233.85 203.998C230.038 193.18 222.015 181.508 222.015 181.508L199.56 209.42V289.167L157.588 270.909C157.588 270.909 134.283 262.285 117.714 260.626C111.353 259.989 108.806 258.4 102.813 260.626C93.9586 263.915 88.0723 270.699 85.185 278.254C81.2353 288.589 84.5769 296.906 86.2343 307.845C88.3329 321.696 95.4362 344.683 93.7894 368.285C93.0128 379.415 91.3981 384.634 90.8513 395.777C90.3196 406.614 93.7894 414.665 91.9006 424.528C91.3021 427.654 87.5714 426.257 86.2343 429.145C85.1326 431.525 85.1692 432.415 86.2343 434.812C87.2995 437.208 95.888 437.75 101.344 434.812C104.067 433.345 104.406 430.973 105.542 428.096C108.69 420.121 107.985 415.085 112.677 408.369C115.399 404.472 117.294 402.703 121.071 399.555C125.088 396.208 126.979 391.971 125.479 386.963C124.098 382.355 117.839 381.995 115.615 377.729C112.054 370.898 113.4 366.066 114.356 358.422C115.615 348.348 123.527 334.173 124.219 318.338C124.399 314.244 124.219 307.845 124.219 307.845C124.219 307.845 158.847 335.337 184.03 347.509C197.837 354.182 207.552 359.39 222.435 355.694C234.549 352.685 243.363 343.086 246.359 336.806C252.282 324.39 253.904 309.962 247.71 289.167C244.772 279.304 239.377 265.995 237.488 245.848C236.07 230.715 238.901 218.333 233.85 203.998Z" fill="#465775"/>
</mask>
<g mask="url(#mask1)">
<g filter="url(#filter25_f)">
<path d="M274.846 349.341L272.205 394.991L233.73 380.102L166.404 388.871L141.117 341.605L274.846 349.341Z" fill="black" fill-opacity="0.5"/>
</g>
<g filter="url(#filter26_f)">
<path d="M144.125 426.808L141.484 472.458L103.009 457.569L35.6827 466.338L10.3961 419.072L144.125 426.808Z" fill="black" fill-opacity="0.5"/>
</g>
<g filter="url(#filter27_f)">
<path d="M164.563 304.69L161.923 350.341L123.447 335.452L56.1212 344.221L30.8346 296.955L164.563 304.69Z" fill="white" fill-opacity="0.1"/>
</g>
</g>
<path d="M184.535 442.742C184.535 442.742 206.578 447.315 213.28 427.948C219.983 408.582 191.395 391.666 200.1 381.953C219.145 360.703 264.356 431.216 325.176 423.107C365.524 417.727 353.15 367.428 353.15 367.428" stroke="white"/>
<g filter="url(#filter28_d)">
<path d="M349.693 357.198L346.315 355.486C346.315 355.486 345.946 360.073 347.336 364.037C348.619 367.692 351.88 368.427 353.749 368.137C356.408 367.723 358.372 366.104 358.599 362.692C358.864 358.71 357.578 354.141 357.578 354.141L354.698 356.6L352.155 354.789L349.693 357.198Z" fill="#FF9090"/>
</g>
<g filter="url(#filter29_i)">
<path d="M89.2778 270.594C93.4399 264.946 100.306 261.718 100.306 261.718L105.417 280.008C105.417 280.008 101.92 278.664 98.6921 282.429C95.7814 285.825 99.3651 290.056 96.8093 293.726C95.0562 296.244 91.2431 296.481 89.2778 298.837C86.3788 302.312 86.3188 308.789 86.3188 308.789C86.3188 308.789 83.36 296.685 83.6292 290.499C83.8833 284.658 85.5121 275.705 89.2778 270.594Z" fill="#32425D"/>
</g>
<g filter="url(#filter30_i)">
<path d="M88.2078 270.863C91.6956 265.835 100.312 260.911 100.312 260.911L103.809 273.284C101.354 273.705 98.0756 273.714 96.277 275.436C92.6313 278.927 95.6823 285.461 91.9735 288.885C90.3163 290.415 88.5469 290.075 86.8629 291.575C85.404 292.875 83.9034 295.61 83.9034 295.61C83.9034 295.61 83.0686 291.036 83.0972 288.078C83.1649 281.066 84.2109 276.626 88.2078 270.863Z" fill="#2B3068"/>
</g>
<g filter="url(#filter31_i)">
<path d="M96.5439 275.167C98.8552 273.366 102.999 273.284 102.999 273.284L104.882 279.74C104.882 279.74 101.789 279.988 100.041 281.085C95.8519 283.713 98.9647 290.499 97.0819 293.458C95.157 296.483 91.7022 296.148 89.2814 298.568C86.4854 301.364 86.3226 308.79 86.3226 308.79L83.6328 294.803C83.6328 294.803 85.2678 292.545 86.8606 291.306C89.2814 289.423 91.1291 290.283 92.7782 287.809C94.93 284.581 92.7411 278.13 96.5439 275.167Z" fill="#33386F"/>
</g>
<g filter="url(#filter32_d)">
<path d="M103.862 209.015C118.795 200.412 131.75 212.201 148.983 212.373C166.932 212.551 175.63 200.394 191.375 209.015C209.694 219.045 200.836 241.235 196.621 261.69C192.438 281.995 185.918 316.464 169.969 316.464C157.797 316.464 164.263 274.481 148.983 274.282C133.559 274.082 139.119 316.464 126.318 316.464C113.516 316.464 104.857 281.169 100.295 261.69C95.593 241.615 85.9965 219.307 103.862 209.015Z" fill="white"/>
</g>
<mask id="mask2" mask-type="alpha" maskUnits="userSpaceOnUse" x="93" y="206" width="110" height="111">
<path d="M103.677 209.178C118.61 200.575 131.565 212.364 148.798 212.536C166.747 212.715 175.445 200.557 191.19 209.178C209.509 219.208 200.651 241.398 196.436 261.853C192.253 282.158 185.733 316.627 169.784 316.627C157.612 316.627 164.078 274.644 148.798 274.445C133.374 274.245 138.934 316.627 126.132 316.627C113.331 316.627 104.672 281.332 100.11 261.853C95.4079 241.778 85.8114 219.47 103.677 209.178Z" fill="white"/>
</mask>
<g mask="url(#mask2)">
<g filter="url(#filter33_f)">
<path d="M135.787 172.581L173.224 146.325L185.423 185.736L234.076 233.092L212.701 282.251L135.787 172.581Z" fill="black" fill-opacity="0.5"/>
</g>
</g>
<g filter="url(#filter34_d)">
<path d="M105.32 233.573C103.613 232.44 101.972 232.671 100.722 231.047C97.5993 226.991 94.6385 223.49 92.6784 220.354C91.1311 217.879 92.5188 212.824 96.5107 209.159C100.722 205.291 106.194 203.439 108.615 205.291C110.023 206.369 111.258 207.556 112.746 209.159C117.116 213.868 119.98 216.391 122.857 222.136C125.634 227.68 127.939 235.434 127.149 237.424C126.525 238.996 124.437 237.131 124.437 237.131C124.437 237.131 127.453 241.355 125.727 242.628C124.605 243.455 123.099 242.254 122.214 241.177C119.344 237.685 115.525 231.996 115.525 231.996C115.525 231.996 120.68 244.405 118.299 245.252C116.125 246.026 114.887 243.618 113.737 241.788C112.225 239.383 110.406 235.648 110.406 235.648C110.406 235.648 109.881 236.574 109.331 236.734C107.906 237.148 106.982 234.676 105.32 233.573Z" fill="#33386F"/>
</g>
<g filter="url(#filter35_f)">
<path d="M97.8865 225.406L99.7693 231.324L125.054 237.779L124.516 232.4L97.8865 225.406Z" fill="#354259"/>
</g>
<g filter="url(#filter36_i)">
<path d="M169.438 434.942C167.742 430.429 171.858 422.838 171.858 422.838C171.858 422.838 172.954 423.6 173.741 423.914C174.641 424.272 176.162 424.452 176.162 424.452C176.162 424.452 172.487 430.064 173.741 433.597C175.243 437.826 180.859 436.102 183.425 439.784C185.438 442.673 183.527 446.002 186.114 448.391C187.426 449.603 190.149 450.543 190.149 450.543L191.763 457.267C191.763 457.267 185.952 455.416 183.425 452.695C180.504 449.551 181.924 445.937 179.39 442.473C176.512 438.54 171.152 439.505 169.438 434.942Z" fill="#33386F"/>
</g>
<g filter="url(#filter37_i)">
<path d="M188.263 425.528C183.421 421.733 176.159 424.452 176.159 424.452C176.159 424.452 172.491 430.12 173.738 433.597C175.166 437.584 180.554 435.633 183.152 438.977C185.578 442.1 183.112 446.083 186.111 448.66C187.607 449.947 190.684 451.35 190.684 451.35C190.684 451.35 190.205 448.425 190.415 445.702C190.952 438.708 194.718 430.589 188.263 425.528Z" fill="#2B3068"/>
</g>
<g filter="url(#filter38_i)">
<path d="M232.921 226.685C235.507 217.647 226.793 182.558 226.793 182.558L234.565 207.825L241.74 224.377C241.74 224.377 242.141 229.679 241.294 232.906C239.674 239.081 233.432 239.849 231.326 245.877C228.218 254.772 236.58 260.485 234.823 269.739C233.05 279.074 225.187 282.662 222.652 290.82C220.626 297.339 222.323 301.94 226.74 307.147C232.519 313.96 251.744 316.321 251.744 316.321C251.744 316.321 251.744 317.666 251.475 320.356C251.269 322.416 250.449 325.467 250.449 325.467C250.449 325.467 226.55 322.183 219.509 315.655C212.362 309.027 208.66 302.403 209.704 292.717C210.854 282.054 221.736 278.059 222.855 266.754C223.602 259.203 218.813 255.02 220.038 247.532C221.582 238.092 230.29 235.882 232.921 226.685Z" fill="#33386F"/>
</g>
<g filter="url(#filter39_i)">
<path d="M230.809 246.971C232.674 241.165 236.948 237.779 236.948 237.779C237.486 251.497 241.52 269.788 246.631 285.927C252.885 305.676 251.741 316.322 251.741 316.322C251.741 316.322 228.561 315.595 222.449 300.6C216.337 285.606 234.66 281.634 234.906 268.008C235.057 259.64 228.25 254.939 230.809 246.971Z" fill="#2B3068"/>
</g>
<g filter="url(#filter40_d)">
<path d="M191.796 165.349C197.908 162.293 204.008 162.602 209.215 167.028C217.609 174.163 222.016 181.509 222.016 181.509C222.016 181.509 214.76 189.786 211.943 195.569C209.514 200.556 208.464 203.572 207.326 209C205.442 217.984 206.399 223.117 206.277 232.295C206.015 251.898 209.215 262.306 205.227 282.662C204.423 286.767 200.499 289.642 196.413 288.748C189.697 287.279 179.679 283.606 169.341 279.304C154.687 273.207 145.836 266.503 133.244 260.627C127.516 257.953 123.504 258.84 117.505 256.849C111.407 254.826 107.682 253.993 102.395 250.343C97.2911 246.821 91.5373 241.134 91.2719 239.011C91.0621 237.332 93.7903 237.961 93.7903 237.961C93.7903 237.961 89.1125 235.711 90.0128 233.764C90.5975 232.5 92.4967 232.827 93.7903 233.344C97.9876 235.023 104.074 238.171 104.074 238.171C104.074 238.171 93.5804 229.777 95.2593 227.888C96.7926 226.163 99.0368 227.678 100.926 228.728C103.409 230.107 106.802 232.505 106.802 232.505C106.802 232.505 106.816 231.442 107.221 231.036C108.271 229.987 110.271 231.709 112.258 231.875C114.3 232.047 115.628 231.054 117.505 231.875C124.22 234.814 130.096 236.912 133.244 239.85C135.63 242.077 136.92 244.575 139.33 246.776C144.157 251.183 150.243 254.121 160.107 258.318C169.088 262.14 184.451 263.984 184.451 263.984C184.451 263.984 185.138 252.696 184.451 245.517C183.579 236.411 182.237 231.505 178.288 223.254C174.168 214.647 172.177 204.425 172.908 195.569C173.532 188.019 175.35 183.285 179.414 176.892C182.96 171.313 187.179 167.658 191.796 165.349Z" fill="#33386F"/>
</g>
<mask id="mask3" mask-type="alpha" maskUnits="userSpaceOnUse" x="89" y="163" width="134" height="126">
<path d="M191.794 165.346C197.907 162.29 204.006 162.599 209.213 167.025C217.607 174.16 222.015 181.506 222.015 181.506C222.015 181.506 214.758 189.783 211.941 195.566C209.512 200.553 208.463 203.569 207.324 208.998C205.44 217.981 206.397 223.114 206.275 232.292C206.013 251.895 209.213 262.303 205.225 282.659C204.421 286.764 200.498 289.639 196.411 288.745C189.696 287.276 179.677 283.603 169.339 279.301C154.685 273.204 145.834 266.5 133.243 260.624C127.514 257.951 123.503 258.837 117.503 256.846C111.405 254.823 107.68 253.99 102.393 250.34C97.2894 246.818 91.5356 241.132 91.2702 239.008C91.0604 237.329 93.7886 237.959 93.7886 237.959C93.7886 237.959 89.1108 235.708 90.0111 233.761C90.5958 232.497 92.495 232.824 93.7886 233.342C97.9858 235.02 104.072 238.168 104.072 238.168C104.072 238.168 93.5787 229.774 95.2576 227.885C96.7909 226.16 99.0351 227.675 100.924 228.725C103.408 230.104 106.8 232.502 106.8 232.502C106.8 232.502 106.814 231.439 107.22 231.033C108.269 229.984 110.269 231.706 112.256 231.873C114.298 232.044 115.626 231.051 117.503 231.873C124.219 234.811 130.095 236.909 133.243 239.847C135.629 242.074 136.918 244.572 139.329 246.773C144.156 251.18 150.242 254.118 160.105 258.315C169.087 262.137 184.449 263.981 184.449 263.981C184.449 263.981 185.137 252.693 184.449 245.514C183.577 236.408 182.236 231.502 178.286 223.251C174.166 214.644 172.175 204.422 172.907 195.566C173.53 188.016 175.348 183.283 179.412 176.889C182.959 171.31 187.177 167.655 191.794 165.346Z" fill="#465775"/>
</mask>
<g mask="url(#mask3)">
<g filter="url(#filter41_f)">
<path d="M239.915 280.915L215.273 319.434L189.005 287.621L126 262.323L127.077 208.729L239.915 280.915Z" fill="black" fill-opacity="0.2"/>
</g>
<g filter="url(#filter42_f)">
<path d="M130.172 231.961L105.53 270.48L79.2622 238.667L16.2571 213.368L17.3346 159.774L130.172 231.961Z" fill="white" fill-opacity="0.2"/>
</g>
</g>
<ellipse cx="214.894" cy="195.28" rx="12.9111" ry="18.8287" fill="#33386F"/>
<g filter="url(#filter43_d)">
<path d="M274.468 256.465C267.403 251.717 264.057 247.406 260.652 239.604C254.396 225.272 225.657 205.826 225.657 205.826L266.888 223.635C266.888 223.635 269.97 231.814 272.606 236.734C275.73 242.564 277.193 246.28 281.989 250.835C289.533 257.998 306.5 261.267 306.5 261.267C306.5 261.267 284.967 263.521 274.468 256.465Z" fill="#FF5959"/>
</g>
<g filter="url(#filter44_d)">
<path d="M225.66 228.364C217.757 219.174 206.831 185.058 206.831 185.058L226.467 192.858C226.467 192.858 239.769 222.119 246.64 228.364C253.528 234.623 264.633 237.656 273.807 239.392C283.76 241.275 300.789 240.312 312.541 254.455C316.248 258.917 320.879 270.862 320.879 270.862C320.879 270.862 313.688 261.517 308.775 259.027C303.826 256.52 300.711 255.785 295.326 254.455C287.825 252.602 283.323 253.231 275.69 252.034C270.947 251.29 268.238 251.07 263.586 249.882C247.087 245.667 236.763 241.275 225.66 228.364Z" fill="#FF7373"/>
</g>
<g filter="url(#filter45_d)">
<path d="M285.909 166.768C264.938 153.25 244.485 142.021 244.485 142.021L269.813 179.443L330.199 195.296C330.199 195.296 344.817 186.041 354.512 182.278C361.955 179.389 367.679 176.115 375.663 176.179C383.331 176.24 392.977 182.129 392.977 182.129C392.977 182.129 388.983 179.337 386.181 177.6C382.15 175.101 376.703 172.97 369.67 172.728C352.457 172.137 334.645 178.065 323.297 178.065C312.807 178.065 292.179 170.81 285.909 166.768Z" fill="#FF5959"/>
</g>
<g filter="url(#filter46_d)">
<path d="M286.689 167.067C266.021 153.09 245.294 139.331 245.294 139.331L259.463 172.542L322.354 208.758L353.729 193.918C353.729 193.918 358.439 190.084 361.853 188.277C367.749 185.157 388.391 185.061 388.391 185.061C388.391 185.061 369.894 181.389 361.224 183.587C352.555 185.785 333.91 186.886 320.608 183.587C306.387 180.06 294.786 172.542 286.689 167.067Z" fill="#FF7373"/>
</g>
<g filter="url(#filter47_d)">
<path d="M174.819 122.117C157.88 118.789 154.915 115.124 136.355 112.434C117.987 109.772 109.7 110.958 99.2358 118.082C91.4093 123.411 88.4768 132.876 88.4766 139.601C88.4759 157.645 99.2358 168.113 99.2358 168.113C99.2358 168.113 93.1422 157.598 97.3527 153.05C102.302 147.705 110.635 156.008 117.795 154.664C125.978 153.128 136.355 143.636 136.355 143.636C136.355 143.636 152.663 144.947 163.791 156.046C171.762 163.996 174.1 170.444 182.351 178.103C200.222 194.692 222.261 188.585 242.064 202.812C252.54 210.337 255.488 217.068 263.045 228.133C276.215 247.417 294.968 253.76 318.186 251.266C327.6 250.254 341.319 244.003 341.319 244.003C341.319 244.003 327.062 245.542 318.186 243.428C312.456 242.063 305.275 236.203 305.275 236.203C305.275 236.203 314.958 238.624 322.221 238.624C332.2 238.624 348.139 235.258 356.919 230.517C370.368 223.254 384.355 206.884 384.355 206.884C384.355 206.884 371.812 216.324 362.299 219.219C351.044 222.645 332.442 217.068 332.442 217.068C332.442 217.068 347.499 216.594 356.919 210.919C367.742 204.398 372.86 191.601 384.893 187.749C392.396 185.347 401.57 188.055 401.57 188.055C401.57 188.055 394.077 184.717 388.659 183.751C382.104 182.584 377.362 183.751 371.175 186.441C354.038 193.892 342.305 197.619 323.835 194.78C304.975 191.881 297.136 180.848 281.605 169.764C267.68 159.827 256.54 146.296 242.064 137.18C230.088 129.638 242.787 136.939 230.498 129.918C213.076 119.963 194.508 125.987 174.819 122.117Z" fill="#FF9090"/>
</g>
<mask id="mask4" mask-type="alpha" maskUnits="userSpaceOnUse" x="88" y="111" width="314" height="141">
<path d="M174.821 122.115C157.881 118.786 154.917 115.121 136.357 112.431C117.989 109.769 109.702 110.955 99.2377 118.079C91.4113 123.408 88.4788 132.873 88.4785 139.598C88.4778 157.642 99.2377 168.11 99.2377 168.11C99.2377 168.11 93.1441 157.595 97.3546 153.047C102.304 147.702 110.637 156.005 117.797 154.661C125.98 153.126 136.357 143.633 136.357 143.633C136.357 143.633 152.665 144.944 163.793 156.043C171.764 163.993 174.102 170.441 182.353 178.1C200.224 194.689 222.263 188.582 242.066 202.809C252.541 210.334 255.49 217.065 263.047 228.13C276.217 247.414 294.97 253.757 318.188 251.263C327.602 250.251 341.32 244 341.32 244C341.32 244 327.064 245.539 318.188 243.425C312.458 242.06 305.277 236.2 305.277 236.2C305.277 236.2 314.96 238.621 322.223 238.621C332.202 238.621 348.141 235.255 356.921 230.514C370.37 223.251 384.357 206.881 384.357 206.881C384.357 206.881 371.814 216.321 362.301 219.216C351.045 222.642 332.444 217.065 332.444 217.065C332.444 217.065 347.501 216.591 356.921 210.916C367.744 204.396 372.862 191.598 384.895 187.746C392.398 185.344 401.572 188.052 401.572 188.052C401.572 188.052 394.079 184.714 388.661 183.749C382.106 182.581 377.364 183.749 371.177 186.438C354.04 193.889 342.307 197.616 323.837 194.777C304.977 191.878 297.138 180.845 281.607 169.761C267.682 159.824 256.542 146.293 242.066 137.177C230.09 129.636 242.789 136.937 230.5 129.915C213.078 119.96 194.51 125.984 174.821 122.115Z" fill="#DE552E"/>
</mask>
<g mask="url(#mask4)">
<g filter="url(#filter48_f)">
<path d="M203.071 208.527L178.429 247.046L152.16 215.234L89.1553 189.935L90.2328 136.341L203.071 208.527Z" fill="black" fill-opacity="0.2"/>
</g>
<g filter="url(#filter49_f)">
<path d="M352.217 272.283L313.861 247.388L345.845 221.33L371.558 158.493L425.144 159.923L352.217 272.283Z" fill="black" fill-opacity="0.2"/>
</g>
<g filter="url(#filter50_f)">
<path d="M227.944 250.227L189.588 225.332L221.573 199.273L247.286 136.436L300.871 137.866L227.944 250.227Z" fill="black" fill-opacity="0.2"/>
</g>
<g filter="url(#filter51_f)">
<path d="M263.453 273.358L225.097 248.463L257.082 222.405L282.795 159.568L336.381 160.998L263.453 273.358Z" fill="white" fill-opacity="0.2"/>
</g>
<g filter="url(#filter52_f)">
<path d="M115.353 112.856L125.72 68.3204L161.103 89.537L228.939 92.348L245.817 143.226L115.353 112.856Z" fill="white" fill-opacity="0.2"/>
</g>
</g>
<g filter="url(#filter53_d)">
<path d="M228.886 202.542C220.547 190.875 203.601 175.913 203.601 175.913C203.601 175.913 229.844 192.423 242.335 207.384C249.972 216.531 251.489 223.695 259.011 232.937C264.499 239.679 274.343 249.076 274.343 249.076C274.343 249.076 264.395 244.731 259.011 240.468C254.235 236.687 248.252 229.171 248.252 229.171C248.252 229.171 252.84 237.421 256.322 242.351C260.666 248.504 268.695 257.145 268.695 257.145C268.695 257.145 255.092 249.445 248.252 242.351C236.252 229.906 238.938 216.607 228.886 202.542Z" fill="#FF9090"/>
</g>
<g filter="url(#filter54_d)">
<path d="M206.828 144.21C197.389 140.748 183.696 132.913 183.696 132.913C183.696 132.913 198.114 144.481 208.173 150.666C217.458 156.375 223.281 158.485 232.919 163.577C244.512 169.702 262.507 179.447 262.507 179.447L247.175 166.805C247.175 166.805 259.08 173.962 267.08 177.833C276.965 182.616 293.171 188.323 293.171 188.323C293.171 188.323 276.941 179.85 267.08 173.529C254.751 165.627 250.366 157.081 236.954 151.204C225.891 146.356 218.167 148.37 206.828 144.21Z" fill="#FF9090"/>
</g>
<g filter="url(#filter55_d)">
<path d="M219.741 158.198C210.086 153.208 193.65 148.515 193.65 148.515C193.65 148.515 208.566 154.767 217.589 159.812C234.496 169.265 257.398 189.4 257.398 189.4C257.398 189.4 236.707 166.967 219.741 158.198Z" fill="#FF9090"/>
</g>
<defs>
<filter id="filter0_f" x="117.02" y="116.26" width="245.727" height="333.952" filterUnits="userSpaceOnUse" color-interpolation-filters="sRGB">
<feFlood flood-opacity="0" result="BackgroundImageFix"/>
<feBlend mode="normal" in="SourceGraphic" in2="BackgroundImageFix" result="shape"/>
<feGaussianBlur stdDeviation="50" result="effect1_foregroundBlur"/>
</filter>
<filter id="filter1_f" x="1.35889" y="205.023" width="284.317" height="336.815" filterUnits="userSpaceOnUse" color-interpolation-filters="sRGB">
<feFlood flood-opacity="0" result="BackgroundImageFix"/>
<feBlend mode="normal" in="SourceGraphic" in2="BackgroundImageFix" result="shape"/>
<feGaussianBlur stdDeviation="50" result="effect1_foregroundBlur"/>
</filter>
<filter id="filter2_f" x="119.252" y="80.2695" width="391.725" height="308.075" filterUnits="userSpaceOnUse" color-interpolation-filters="sRGB">
<feFlood flood-opacity="0" result="BackgroundImageFix"/>
<feBlend mode="normal" in="SourceGraphic" in2="BackgroundImageFix" result="shape"/>
<feGaussianBlur stdDeviation="50" result="effect1_foregroundBlur"/>
</filter>
<filter id="filter3_f" x="-6.81763" y="26.0342" width="309.417" height="337.953" filterUnits="userSpaceOnUse" color-interpolation-filters="sRGB">
<feFlood flood-opacity="0" result="BackgroundImageFix"/>
<feBlend mode="normal" in="SourceGraphic" in2="BackgroundImageFix" result="shape"/>
<feGaussianBlur stdDeviation="50" result="effect1_foregroundBlur"/>
</filter>
<filter id="filter4_d" x="13.4612" y="429.293" width="42.2278" height="30.0336" filterUnits="userSpaceOnUse" color-interpolation-filters="sRGB">
<feFlood flood-opacity="0" result="BackgroundImageFix"/>
<feColorMatrix in="SourceAlpha" type="matrix" values="0 0 0 0 0 0 0 0 0 0 0 0 0 0 0 0 0 0 127 0"/>
<feOffset dy="4"/>
<feGaussianBlur stdDeviation="2"/>
<feColorMatrix type="matrix" values="0 0 0 0 0 0 0 0 0 0 0 0 0 0 0 0 0 0 0.25 0"/>
<feBlend mode="normal" in2="BackgroundImageFix" result="effect1_dropShadow"/>
<feBlend mode="normal" in="SourceGraphic" in2="effect1_dropShadow" result="shape"/>
</filter>
<filter id="filter5_d" x="29.062" y="416.92" width="27.8206" height="25.4812" filterUnits="userSpaceOnUse" color-interpolation-filters="sRGB">
<feFlood flood-opacity="0" result="BackgroundImageFix"/>
<feColorMatrix in="SourceAlpha" type="matrix" values="0 0 0 0 0 0 0 0 0 0 0 0 0 0 0 0 0 0 127 0"/>
<feOffset dy="4"/>
<feGaussianBlur stdDeviation="2"/>
<feColorMatrix type="matrix" values="0 0 0 0 0 0 0 0 0 0 0 0 0 0 0 0 0 0 0.25 0"/>
<feBlend mode="normal" in2="BackgroundImageFix" result="effect1_dropShadow"/>
<feBlend mode="normal" in="SourceGraphic" in2="effect1_dropShadow" result="shape"/>
</filter>
<filter id="filter6_d" x="10" y="341.833" width="29.7671" height="21.0595" filterUnits="userSpaceOnUse" color-interpolation-filters="sRGB">
<feFlood flood-opacity="0" result="BackgroundImageFix"/>
<feColorMatrix in="SourceAlpha" type="matrix" values="0 0 0 0 0 0 0 0 0 0 0 0 0 0 0 0 0 0 127 0"/>
<feOffset dy="4"/>
<feGaussianBlur stdDeviation="2"/>
<feColorMatrix type="matrix" values="0 0 0 0 0 0 0 0 0 0 0 0 0 0 0 0 0 0 0.25 0"/>
<feBlend mode="normal" in2="BackgroundImageFix" result="effect1_dropShadow"/>
<feBlend mode="normal" in="SourceGraphic" in2="effect1_dropShadow" result="shape"/>
</filter>
<filter id="filter7_d" x="17.7683" y="299.106" width="33.038" height="42.4844" filterUnits="userSpaceOnUse" color-interpolation-filters="sRGB">
<feFlood flood-opacity="0" result="BackgroundImageFix"/>
<feColorMatrix in="SourceAlpha" type="matrix" values="0 0 0 0 0 0 0 0 0 0 0 0 0 0 0 0 0 0 127 0"/>
<feOffset dy="4"/>
<feGaussianBlur stdDeviation="2"/>
<feColorMatrix type="matrix" values="0 0 0 0 0 0 0 0 0 0 0 0 0 0 0 0 0 0 0.25 0"/>
<feBlend mode="normal" in2="BackgroundImageFix" result="effect1_dropShadow"/>
<feBlend mode="normal" in="SourceGraphic" in2="effect1_dropShadow" result="shape"/>
</filter>
<filter id="filter8_d" x="249.382" y="366.835" width="33.038" height="42.4844" filterUnits="userSpaceOnUse" color-interpolation-filters="sRGB">
<feFlood flood-opacity="0" result="BackgroundImageFix"/>
<feColorMatrix in="SourceAlpha" type="matrix" values="0 0 0 0 0 0 0 0 0 0 0 0 0 0 0 0 0 0 127 0"/>
<feOffset dy="4"/>
<feGaussianBlur stdDeviation="2"/>
<feColorMatrix type="matrix" values="0 0 0 0 0 0 0 0 0 0 0 0 0 0 0 0 0 0 0.25 0"/>
<feBlend mode="normal" in2="BackgroundImageFix" result="effect1_dropShadow"/>
<feBlend mode="normal" in="SourceGraphic" in2="effect1_dropShadow" result="shape"/>
</filter>
<filter id="filter9_d" x="351.302" y="373.883" width="28.642" height="31.0444" filterUnits="userSpaceOnUse" color-interpolation-filters="sRGB">
<feFlood flood-opacity="0" result="BackgroundImageFix"/>
<feColorMatrix in="SourceAlpha" type="matrix" values="0 0 0 0 0 0 0 0 0 0 0 0 0 0 0 0 0 0 127 0"/>
<feOffset dy="4"/>
<feGaussianBlur stdDeviation="2"/>
<feColorMatrix type="matrix" values="0 0 0 0 0 0 0 0 0 0 0 0 0 0 0 0 0 0 0.25 0"/>
<feBlend mode="normal" in2="BackgroundImageFix" result="effect1_dropShadow"/>
<feBlend mode="normal" in="SourceGraphic" in2="effect1_dropShadow" result="shape"/>
</filter>
<filter id="filter10_d" x="291.889" y="303.5" width="23.5832" height="24.7823" filterUnits="userSpaceOnUse" color-interpolation-filters="sRGB">
<feFlood flood-opacity="0" result="BackgroundImageFix"/>
<feColorMatrix in="SourceAlpha" type="matrix" values="0 0 0 0 0 0 0 0 0 0 0 0 0 0 0 0 0 0 127 0"/>
<feOffset dy="4"/>
<feGaussianBlur stdDeviation="2.5"/>
<feColorMatrix type="matrix" values="0 0 0 0 0 0 0 0 0 0 0 0 0 0 0 0 0 0 0.3 0"/>
<feBlend mode="normal" in2="BackgroundImageFix" result="effect1_dropShadow"/>
<feBlend mode="normal" in="SourceGraphic" in2="effect1_dropShadow" result="shape"/>
</filter>
<filter id="filter11_d" x="29.7271" y="359.09" width="24.5516" height="23.3195" filterUnits="userSpaceOnUse" color-interpolation-filters="sRGB">
<feFlood flood-opacity="0" result="BackgroundImageFix"/>
<feColorMatrix in="SourceAlpha" type="matrix" values="0 0 0 0 0 0 0 0 0 0 0 0 0 0 0 0 0 0 127 0"/>
<feOffset dy="4"/>
<feGaussianBlur stdDeviation="2.5"/>
<feColorMatrix type="matrix" values="0 0 0 0 0 0 0 0 0 0 0 0 0 0 0 0 0 0 0.3 0"/>
<feBlend mode="normal" in2="BackgroundImageFix" result="effect1_dropShadow"/>
<feBlend mode="normal" in="SourceGraphic" in2="effect1_dropShadow" result="shape"/>
</filter>
<filter id="filter12_d" x="219.389" y="408.797" width="25.9985" height="26.8069" filterUnits="userSpaceOnUse" color-interpolation-filters="sRGB">
<feFlood flood-opacity="0" result="BackgroundImageFix"/>
<feColorMatrix in="SourceAlpha" type="matrix" values="0 0 0 0 0 0 0 0 0 0 0 0 0 0 0 0 0 0 127 0"/>
<feOffset dy="4"/>
<feGaussianBlur stdDeviation="2.5"/>
<feColorMatrix type="matrix" values="0 0 0 0 0 0 0 0 0 0 0 0 0 0 0 0 0 0 0.3 0"/>
<feBlend mode="normal" in2="BackgroundImageFix" result="effect1_dropShadow"/>
<feBlend mode="normal" in="SourceGraphic" in2="effect1_dropShadow" result="shape"/>
</filter>
<filter id="filter13_d" x="303.959" y="310.403" width="29.2942" height="42.099" filterUnits="userSpaceOnUse" color-interpolation-filters="sRGB">
<feFlood flood-opacity="0" result="BackgroundImageFix"/>
<feColorMatrix in="SourceAlpha" type="matrix" values="0 0 0 0 0 0 0 0 0 0 0 0 0 0 0 0 0 0 127 0"/>
<feOffset dy="4"/>
<feGaussianBlur stdDeviation="2"/>
<feColorMatrix type="matrix" values="0 0 0 0 0 0 0 0 0 0 0 0 0 0 0 0 0 0 0.25 0"/>
<feBlend mode="normal" in2="BackgroundImageFix" result="effect1_dropShadow"/>
<feBlend mode="normal" in="SourceGraphic" in2="effect1_dropShadow" result="shape"/>
</filter>
<filter id="filter14_d" x="156.021" y="376.035" width="29.2942" height="42.099" filterUnits="userSpaceOnUse" color-interpolation-filters="sRGB">
<feFlood flood-opacity="0" result="BackgroundImageFix"/>
<feColorMatrix in="SourceAlpha" type="matrix" values="0 0 0 0 0 0 0 0 0 0 0 0 0 0 0 0 0 0 127 0"/>
<feOffset dy="4"/>
<feGaussianBlur stdDeviation="2"/>
<feColorMatrix type="matrix" values="0 0 0 0 0 0 0 0 0 0 0 0 0 0 0 0 0 0 0.25 0"/>
<feBlend mode="normal" in2="BackgroundImageFix" result="effect1_dropShadow"/>
<feBlend mode="normal" in="SourceGraphic" in2="effect1_dropShadow" result="shape"/>
</filter>
<filter id="filter15_d" x="273.83" y="330.847" width="40.9811" height="38.9125" filterUnits="userSpaceOnUse" color-interpolation-filters="sRGB">
<feFlood flood-opacity="0" result="BackgroundImageFix"/>
<feColorMatrix in="SourceAlpha" type="matrix" values="0 0 0 0 0 0 0 0 0 0 0 0 0 0 0 0 0 0 127 0"/>
<feOffset dy="4"/>
<feGaussianBlur stdDeviation="2"/>
<feColorMatrix type="matrix" values="0 0 0 0 0 0 0 0 0 0 0 0 0 0 0 0 0 0 0.25 0"/>
<feBlend mode="normal" in2="BackgroundImageFix" result="effect1_dropShadow"/>
<feBlend mode="normal" in="SourceGraphic" in2="effect1_dropShadow" result="shape"/>
</filter>
<filter id="filter16_d" x="44.0601" y="240.469" width="29.3026" height="19.3634" filterUnits="userSpaceOnUse" color-interpolation-filters="sRGB">
<feFlood flood-opacity="0" result="BackgroundImageFix"/>
<feColorMatrix in="SourceAlpha" type="matrix" values="0 0 0 0 0 0 0 0 0 0 0 0 0 0 0 0 0 0 127 0"/>
<feOffset dy="4"/>
<feGaussianBlur stdDeviation="2"/>
<feColorMatrix type="matrix" values="0 0 0 0 0 0 0 0 0 0 0 0 0 0 0 0 0 0 0.25 0"/>
<feBlend mode="normal" in2="BackgroundImageFix" result="effect1_dropShadow"/>
<feBlend mode="normal" in="SourceGraphic" in2="effect1_dropShadow" result="shape"/>
</filter>
<filter id="filter17_d" x="21.0686" y="273.36" width="26.1973" height="26.9628" filterUnits="userSpaceOnUse" color-interpolation-filters="sRGB">
<feFlood flood-opacity="0" result="BackgroundImageFix"/>
<feColorMatrix in="SourceAlpha" type="matrix" values="0 0 0 0 0 0 0 0 0 0 0 0 0 0 0 0 0 0 127 0"/>
<feOffset dy="4"/>
<feGaussianBlur stdDeviation="2.5"/>
<feColorMatrix type="matrix" values="0 0 0 0 0 0 0 0 0 0 0 0 0 0 0 0 0 0 0.3 0"/>
<feBlend mode="normal" in2="BackgroundImageFix" result="effect1_dropShadow"/>
<feBlend mode="normal" in="SourceGraphic" in2="effect1_dropShadow" result="shape"/>
</filter>
<filter id="filter18_d" x="122.192" y="169.212" width="41.6417" height="58.8964" filterUnits="userSpaceOnUse" color-interpolation-filters="sRGB">
<feFlood flood-opacity="0" result="BackgroundImageFix"/>
<feColorMatrix in="SourceAlpha" type="matrix" values="0 0 0 0 0 0 0 0 0 0 0 0 0 0 0 0 0 0 127 0"/>
<feOffset dy="4"/>
<feGaussianBlur stdDeviation="5"/>
<feColorMatrix type="matrix" values="0 0 0 0 0 0 0 0 0 0 0 0 0 0 0 0 0 0 0.4 0"/>
<feBlend mode="normal" in2="BackgroundImageFix" result="effect1_dropShadow"/>
<feBlend mode="normal" in="SourceGraphic" in2="effect1_dropShadow" result="shape"/>
</filter>
<filter id="filter19_d" x="24.1421" y="188.742" width="303.511" height="315.411" filterUnits="userSpaceOnUse" color-interpolation-filters="sRGB">
<feFlood flood-opacity="0" result="BackgroundImageFix"/>
<feColorMatrix in="SourceAlpha" type="matrix" values="0 0 0 0 0 0 0 0 0 0 0 0 0 0 0 0 0 0 127 0"/>
<feOffset dy="4"/>
<feGaussianBlur stdDeviation="5"/>
<feColorMatrix type="matrix" values="0 0 0 0 0 0 0 0 0 0 0 0 0 0 0 0 0 0 0.4 0"/>
<feBlend mode="normal" in2="BackgroundImageFix" result="effect1_dropShadow"/>
<feBlend mode="normal" in="SourceGraphic" in2="effect1_dropShadow" result="shape"/>
</filter>
<filter id="filter20_d" x="137.305" y="165.435" width="44.344" height="66.5895" filterUnits="userSpaceOnUse" color-interpolation-filters="sRGB">
<feFlood flood-opacity="0" result="BackgroundImageFix"/>
<feColorMatrix in="SourceAlpha" type="matrix" values="0 0 0 0 0 0 0 0 0 0 0 0 0 0 0 0 0 0 127 0"/>
<feOffset dy="4"/>
<feGaussianBlur stdDeviation="5"/>
<feColorMatrix type="matrix" values="0 0 0 0 0 0 0 0 0 0 0 0 0 0 0 0 0 0 0.4 0"/>
<feBlend mode="normal" in2="BackgroundImageFix" result="effect1_dropShadow"/>
<feBlend mode="normal" in="SourceGraphic" in2="effect1_dropShadow" result="shape"/>
</filter>
<filter id="filter21_d" x="85.8857" y="134.322" width="141.091" height="95.938" filterUnits="userSpaceOnUse" color-interpolation-filters="sRGB">
<feFlood flood-opacity="0" result="BackgroundImageFix"/>
<feColorMatrix in="SourceAlpha" type="matrix" values="0 0 0 0 0 0 0 0 0 0 0 0 0 0 0 0 0 0 127 0"/>
<feOffset dy="4"/>
<feGaussianBlur stdDeviation="5"/>
<feColorMatrix type="matrix" values="0 0 0 0 0 0 0 0 0 0 0 0 0 0 0 0 0 0 0.4 0"/>
<feBlend mode="normal" in2="BackgroundImageFix" result="effect1_dropShadow"/>
<feBlend mode="normal" in="SourceGraphic" in2="effect1_dropShadow" result="shape"/>
</filter>
<filter id="filter22_f" x="35.2512" y="25.3447" width="341.509" height="284.121" filterUnits="userSpaceOnUse" color-interpolation-filters="sRGB">
<feFlood flood-opacity="0" result="BackgroundImageFix"/>
<feBlend mode="normal" in="SourceGraphic" in2="BackgroundImageFix" result="shape"/>
<feGaussianBlur stdDeviation="50" result="effect1_foregroundBlur"/>
</filter>
<filter id="filter23_f" x="-55.1279" y="31.8008" width="318.003" height="334.004" filterUnits="userSpaceOnUse" color-interpolation-filters="sRGB">
<feFlood flood-opacity="0" result="BackgroundImageFix"/>
<feBlend mode="normal" in="SourceGraphic" in2="BackgroundImageFix" result="shape"/>
<feGaussianBlur stdDeviation="50" result="effect1_foregroundBlur"/>
</filter>
<filter id="filter24_d" x="73.332" y="175.508" width="188.314" height="275.31" filterUnits="userSpaceOnUse" color-interpolation-filters="sRGB">
<feFlood flood-opacity="0" result="BackgroundImageFix"/>
<feColorMatrix in="SourceAlpha" type="matrix" values="0 0 0 0 0 0 0 0 0 0 0 0 0 0 0 0 0 0 127 0"/>
<feOffset dy="4"/>
<feGaussianBlur stdDeviation="5"/>
<feColorMatrix type="matrix" values="0 0 0 0 0 0 0 0 0 0 0 0 0 0 0 0 0 0 0.4 0"/>
<feBlend mode="normal" in2="BackgroundImageFix" result="effect1_dropShadow"/>
<feBlend mode="normal" in="SourceGraphic" in2="effect1_dropShadow" result="shape"/>
</filter>
<filter id="filter25_f" x="38.4763" y="241.605" width="336.37" height="253.386" filterUnits="userSpaceOnUse" color-interpolation-filters="sRGB">
<feFlood flood-opacity="0" result="BackgroundImageFix"/>
<feBlend mode="normal" in="SourceGraphic" in2="BackgroundImageFix" result="shape"/>
<feGaussianBlur stdDeviation="50" result="effect1_foregroundBlur"/>
</filter>
<filter id="filter26_f" x="-92.2446" y="319.072" width="336.37" height="253.386" filterUnits="userSpaceOnUse" color-interpolation-filters="sRGB">
<feFlood flood-opacity="0" result="BackgroundImageFix"/>
<feBlend mode="normal" in="SourceGraphic" in2="BackgroundImageFix" result="shape"/>
<feGaussianBlur stdDeviation="50" result="effect1_foregroundBlur"/>
</filter>
<filter id="filter27_f" x="-71.8062" y="196.955" width="336.37" height="253.386" filterUnits="userSpaceOnUse" color-interpolation-filters="sRGB">
<feFlood flood-opacity="0" result="BackgroundImageFix"/>
<feBlend mode="normal" in="SourceGraphic" in2="BackgroundImageFix" result="shape"/>
<feGaussianBlur stdDeviation="50" result="effect1_foregroundBlur"/>
</filter>
<filter id="filter28_d" x="340.913" y="353.103" width="23.5832" height="24.7823" filterUnits="userSpaceOnUse" color-interpolation-filters="sRGB">
<feFlood flood-opacity="0" result="BackgroundImageFix"/>
<feColorMatrix in="SourceAlpha" type="matrix" values="0 0 0 0 0 0 0 0 0 0 0 0 0 0 0 0 0 0 127 0"/>
<feOffset dy="4"/>
<feGaussianBlur stdDeviation="2.5"/>
<feColorMatrix type="matrix" values="0 0 0 0 0 0 0 0 0 0 0 0 0 0 0 0 0 0 0.3 0"/>
<feBlend mode="normal" in2="BackgroundImageFix" result="effect1_dropShadow"/>
<feBlend mode="normal" in="SourceGraphic" in2="effect1_dropShadow" result="shape"/>
</filter>
<filter id="filter29_i" x="80.6118" y="261.718" width="24.8048" height="47.0716" filterUnits="userSpaceOnUse" color-interpolation-filters="sRGB">
<feFlood flood-opacity="0" result="BackgroundImageFix"/>
<feBlend mode="normal" in="SourceGraphic" in2="BackgroundImageFix" result="shape"/>
<feColorMatrix in="SourceAlpha" type="matrix" values="0 0 0 0 0 0 0 0 0 0 0 0 0 0 0 0 0 0 127 0" result="hardAlpha"/>
<feOffset dx="-3"/>
<feGaussianBlur stdDeviation="3"/>
<feComposite in2="hardAlpha" operator="arithmetic" k2="-1" k3="1"/>
<feColorMatrix type="matrix" values="0 0 0 0 0 0 0 0 0 0 0 0 0 0 0 0 0 0 0.3 0"/>
<feBlend mode="normal" in2="shape" result="effect1_innerShadow"/>
</filter>
<filter id="filter30_i" x="80.0964" y="260.911" width="23.7122" height="34.6985" filterUnits="userSpaceOnUse" color-interpolation-filters="sRGB">
<feFlood flood-opacity="0" result="BackgroundImageFix"/>
<feBlend mode="normal" in="SourceGraphic" in2="BackgroundImageFix" result="shape"/>
<feColorMatrix in="SourceAlpha" type="matrix" values="0 0 0 0 0 0 0 0 0 0 0 0 0 0 0 0 0 0 127 0" result="hardAlpha"/>
<feOffset dx="-3"/>
<feGaussianBlur stdDeviation="3"/>
<feComposite in2="hardAlpha" operator="arithmetic" k2="-1" k3="1"/>
<feColorMatrix type="matrix" values="0 0 0 0 0 0 0 0 0 0 0 0 0 0 0 0 0 0 0.3 0"/>
<feBlend mode="normal" in2="shape" result="effect1_innerShadow"/>
</filter>
<filter id="filter31_i" x="83.6328" y="269.284" width="21.2495" height="39.5055" filterUnits="userSpaceOnUse" color-interpolation-filters="sRGB">
<feFlood flood-opacity="0" result="BackgroundImageFix"/>
<feBlend mode="normal" in="SourceGraphic" in2="BackgroundImageFix" result="shape"/>
<feColorMatrix in="SourceAlpha" type="matrix" values="0 0 0 0 0 0 0 0 0 0 0 0 0 0 0 0 0 0 127 0" result="hardAlpha"/>
<feOffset dy="-4"/>
<feGaussianBlur stdDeviation="2"/>
<feComposite in2="hardAlpha" operator="arithmetic" k2="-1" k3="1"/>
<feColorMatrix type="matrix" values="0 0 0 0 0 0 0 0 0 0 0 0 0 0 0 0 0 0 0.4 0"/>
<feBlend mode="normal" in2="shape" result="effect1_innerShadow"/>
</filter>
<filter id="filter32_d" x="83.4731" y="199.876" width="129.027" height="130.588" filterUnits="userSpaceOnUse" color-interpolation-filters="sRGB">
<feFlood flood-opacity="0" result="BackgroundImageFix"/>
<feColorMatrix in="SourceAlpha" type="matrix" values="0 0 0 0 0 0 0 0 0 0 0 0 0 0 0 0 0 0 127 0"/>
<feOffset dy="4"/>
<feGaussianBlur stdDeviation="5"/>
<feColorMatrix type="matrix" values="0 0 0 0 0 0 0 0 0 0 0 0 0 0 0 0 0 0 0.4 0"/>
<feBlend mode="normal" in2="BackgroundImageFix" result="effect1_dropShadow"/>
<feBlend mode="normal" in="SourceGraphic" in2="effect1_dropShadow" result="shape"/>
</filter>
<filter id="filter33_f" x="35.7869" y="46.3252" width="314.352" height="335.926" filterUnits="userSpaceOnUse" color-interpolation-filters="sRGB">
<feFlood flood-opacity="0" result="BackgroundImageFix"/>
<feBlend mode="normal" in="SourceGraphic" in2="BackgroundImageFix" result="shape"/>
<feGaussianBlur stdDeviation="50" result="effect1_foregroundBlur"/>
</filter>
<filter id="filter34_d" x="75.2429" y="194.66" width="72.3901" height="67.8596" filterUnits="userSpaceOnUse" color-interpolation-filters="sRGB">
<feFlood flood-opacity="0" result="BackgroundImageFix"/>
<feColorMatrix in="SourceAlpha" type="matrix" values="0 0 0 0 0 0 0 0 0 0 0 0 0 0 0 0 0 0 127 0"/>
<feOffset dy="4"/>
<feGaussianBlur stdDeviation="5"/>
<feColorMatrix type="matrix" values="0 0 0 0 0 0 0 0 0 0 0 0 0 0 0 0 0 0 0.4 0"/>
<feBlend mode="normal" in2="BackgroundImageFix" result="effect1_dropShadow"/>
<feBlend mode="normal" in="SourceGraphic" in2="effect1_dropShadow" result="shape"/>
</filter>
<filter id="filter35_f" x="77.8865" y="205.406" width="67.1671" height="52.3731" filterUnits="userSpaceOnUse" color-interpolation-filters="sRGB">
<feFlood flood-opacity="0" result="BackgroundImageFix"/>
<feBlend mode="normal" in="SourceGraphic" in2="BackgroundImageFix" result="shape"/>
<feGaussianBlur stdDeviation="10" result="effect1_foregroundBlur"/>
</filter>
<filter id="filter36_i" x="169.028" y="418.838" width="22.7349" height="38.4295" filterUnits="userSpaceOnUse" color-interpolation-filters="sRGB">
<feFlood flood-opacity="0" result="BackgroundImageFix"/>
<feBlend mode="normal" in="SourceGraphic" in2="BackgroundImageFix" result="shape"/>
<feColorMatrix in="SourceAlpha" type="matrix" values="0 0 0 0 0 0 0 0 0 0 0 0 0 0 0 0 0 0 127 0" result="hardAlpha"/>
<feOffset dy="-4"/>
<feGaussianBlur stdDeviation="2"/>
<feComposite in2="hardAlpha" operator="arithmetic" k2="-1" k3="1"/>
<feColorMatrix type="matrix" values="0 0 0 0 0 0 0 0 0 0 0 0 0 0 0 0 0 0 0.25 0"/>
<feBlend mode="normal" in2="shape" result="effect1_innerShadow"/>
</filter>
<filter id="filter37_i" x="173.479" y="419.509" width="18.5146" height="31.8415" filterUnits="userSpaceOnUse" color-interpolation-filters="sRGB">
<feFlood flood-opacity="0" result="BackgroundImageFix"/>
<feBlend mode="normal" in="SourceGraphic" in2="BackgroundImageFix" result="shape"/>
<feColorMatrix in="SourceAlpha" type="matrix" values="0 0 0 0 0 0 0 0 0 0 0 0 0 0 0 0 0 0 127 0" result="hardAlpha"/>
<feOffset dy="-4"/>
<feGaussianBlur stdDeviation="2"/>
<feComposite in2="hardAlpha" operator="arithmetic" k2="-1" k3="1"/>
<feColorMatrix type="matrix" values="0 0 0 0 0 0 0 0 0 0 0 0 0 0 0 0 0 0 0.25 0"/>
<feBlend mode="normal" in2="shape" result="effect1_innerShadow"/>
</filter>
<filter id="filter38_i" x="193.375" y="181.293" width="67.052" height="153.461" filterUnits="userSpaceOnUse" color-interpolation-filters="sRGB">
<feFlood flood-opacity="0" result="BackgroundImageFix"/>
<feBlend mode="normal" in="SourceGraphic" in2="BackgroundImageFix" result="shape"/>
<feColorMatrix in="SourceAlpha" type="matrix" values="0 0 0 0 0 0 0 0 0 0 0 0 0 0 0 0 0 0 127 0" result="hardAlpha"/>
<feOffset dx="4" dy="4"/>
<feGaussianBlur stdDeviation="2"/>
<feComposite in2="hardAlpha" operator="arithmetic" k2="-1" k3="1"/>
<feColorMatrix type="matrix" values="0 0 0 0 0 0 0 0 0 0 0 0 0 0 0 0 0 0 0.25 0"/>
<feBlend mode="normal" in2="shape" result="effect1_innerShadow"/>
</filter>
<filter id="filter39_i" x="213.219" y="237.16" width="43.5289" height="87.1096" filterUnits="userSpaceOnUse" color-interpolation-filters="sRGB">
<feFlood flood-opacity="0" result="BackgroundImageFix"/>
<feBlend mode="normal" in="SourceGraphic" in2="BackgroundImageFix" result="shape"/>
<feColorMatrix in="SourceAlpha" type="matrix" values="0 0 0 0 0 0 0 0 0 0 0 0 0 0 0 0 0 0 127 0" result="hardAlpha"/>
<feOffset dx="5" dy="4"/>
<feGaussianBlur stdDeviation="2"/>
<feComposite in2="hardAlpha" operator="arithmetic" k2="-1" k3="1"/>
<feColorMatrix type="matrix" values="0 0 0 0 0 0 0 0 0 0 0 0 0 0 0 0 0 0 0.25 0"/>
<feBlend mode="normal" in2="shape" result="effect1_innerShadow"/>
</filter>
<filter id="filter40_d" x="79.8977" y="157.333" width="152.119" height="145.579" filterUnits="userSpaceOnUse" color-interpolation-filters="sRGB">
<feFlood flood-opacity="0" result="BackgroundImageFix"/>
<feColorMatrix in="SourceAlpha" type="matrix" values="0 0 0 0 0 0 0 0 0 0 0 0 0 0 0 0 0 0 127 0"/>
<feOffset dy="4"/>
<feGaussianBlur stdDeviation="5"/>
<feColorMatrix type="matrix" values="0 0 0 0 0 0 0 0 0 0 0 0 0 0 0 0 0 0 0.4 0"/>
<feBlend mode="normal" in2="BackgroundImageFix" result="effect1_dropShadow"/>
<feBlend mode="normal" in="SourceGraphic" in2="effect1_dropShadow" result="shape"/>
</filter>
<filter id="filter41_f" x="2.43506" y="108.729" width="337.48" height="310.705" filterUnits="userSpaceOnUse" color-interpolation-filters="sRGB">
<feFlood flood-opacity="0" result="BackgroundImageFix"/>
<feBlend mode="normal" in="SourceGraphic" in2="BackgroundImageFix" result="shape"/>
<feGaussianBlur stdDeviation="50" result="effect1_foregroundBlur"/>
</filter>
<filter id="filter42_f" x="-107.307" y="59.7744" width="337.48" height="310.705" filterUnits="userSpaceOnUse" color-interpolation-filters="sRGB">
<feFlood flood-opacity="0" result="BackgroundImageFix"/>
<feBlend mode="normal" in="SourceGraphic" in2="BackgroundImageFix" result="shape"/>
<feGaussianBlur stdDeviation="50" result="effect1_foregroundBlur"/>
</filter>
<filter id="filter43_d" x="215.657" y="179.059" width="100.843" height="116.976" filterUnits="userSpaceOnUse" color-interpolation-filters="sRGB">
<feFlood flood-opacity="0" result="BackgroundImageFix"/>
<feColorMatrix in="SourceAlpha" type="matrix" values="0 0 0 0 0 0 0 0 0 0 0 0 0 0 0 0 0 0 127 0"/>
<feOffset dy="4"/>
<feGaussianBlur stdDeviation="5"/>
<feColorMatrix type="matrix" values="0 0 0 0 0 0 0 0 0 0 0 0 0 0 0 0 0 0 0.4 0"/>
<feBlend mode="normal" in2="BackgroundImageFix" result="effect1_dropShadow"/>
<feBlend mode="normal" in="SourceGraphic" in2="effect1_dropShadow" result="shape"/>
</filter>
<filter id="filter44_d" x="196.831" y="179.058" width="134.048" height="105.805" filterUnits="userSpaceOnUse" color-interpolation-filters="sRGB">
<feFlood flood-opacity="0" result="BackgroundImageFix"/>
<feColorMatrix in="SourceAlpha" type="matrix" values="0 0 0 0 0 0 0 0 0 0 0 0 0 0 0 0 0 0 127 0"/>
<feOffset dy="4"/>
<feGaussianBlur stdDeviation="5"/>
<feColorMatrix type="matrix" values="0 0 0 0 0 0 0 0 0 0 0 0 0 0 0 0 0 0 0.4 0"/>
<feBlend mode="normal" in2="BackgroundImageFix" result="effect1_dropShadow"/>
<feBlend mode="normal" in="SourceGraphic" in2="effect1_dropShadow" result="shape"/>
</filter>
<filter id="filter45_d" x="226.357" y="129.199" width="177.628" height="97.8881" filterUnits="userSpaceOnUse" color-interpolation-filters="sRGB">
<feFlood flood-opacity="0" result="BackgroundImageFix"/>
<feColorMatrix in="SourceAlpha" type="matrix" values="0 0 0 0 0 0 0 0 0 0 0 0 0 0 0 0 0 0 127 0"/>
<feOffset dy="4"/>
<feGaussianBlur stdDeviation="5"/>
<feColorMatrix type="matrix" values="0 0 0 0 0 0 0 0 0 0 0 0 0 0 0 0 0 0 0.4 0"/>
<feBlend mode="normal" in2="BackgroundImageFix" result="effect1_dropShadow"/>
<feBlend mode="normal" in="SourceGraphic" in2="effect1_dropShadow" result="shape"/>
</filter>
<filter id="filter46_d" x="225.594" y="133.331" width="176.278" height="100.216" filterUnits="userSpaceOnUse" color-interpolation-filters="sRGB">
<feFlood flood-opacity="0" result="BackgroundImageFix"/>
<feColorMatrix in="SourceAlpha" type="matrix" values="0 0 0 0 0 0 0 0 0 0 0 0 0 0 0 0 0 0 127 0"/>
<feOffset dy="4"/>
<feGaussianBlur stdDeviation="5"/>
<feColorMatrix type="matrix" values="0 0 0 0 0 0 0 0 0 0 0 0 0 0 0 0 0 0 0.4 0"/>
<feBlend mode="normal" in2="BackgroundImageFix" result="effect1_dropShadow"/>
<feBlend mode="normal" in="SourceGraphic" in2="effect1_dropShadow" result="shape"/>
</filter>
<filter id="filter47_d" x="78.4766" y="105.129" width="333.094" height="160.654" filterUnits="userSpaceOnUse" color-interpolation-filters="sRGB">
<feFlood flood-opacity="0" result="BackgroundImageFix"/>
<feColorMatrix in="SourceAlpha" type="matrix" values="0 0 0 0 0 0 0 0 0 0 0 0 0 0 0 0 0 0 127 0"/>
<feOffset dy="4"/>
<feGaussianBlur stdDeviation="5"/>
<feColorMatrix type="matrix" values="0 0 0 0 0 0 0 0 0 0 0 0 0 0 0 0 0 0 0.4 0"/>
<feBlend mode="normal" in2="BackgroundImageFix" result="effect1_dropShadow"/>
<feBlend mode="normal" in="SourceGraphic" in2="effect1_dropShadow" result="shape"/>
</filter>
<filter id="filter48_f" x="-34.4092" y="36.3408" width="337.48" height="310.705" filterUnits="userSpaceOnUse" color-interpolation-filters="sRGB">
<feFlood flood-opacity="0" result="BackgroundImageFix"/>
<feBlend mode="normal" in="SourceGraphic" in2="BackgroundImageFix" result="shape"/>
<feGaussianBlur stdDeviation="50" result="effect1_foregroundBlur"/>
</filter>
<filter id="filter49_f" x="213.861" y="35.0283" width="311.283" height="337.255" filterUnits="userSpaceOnUse" color-interpolation-filters="sRGB">
<feFlood flood-opacity="0" result="BackgroundImageFix"/>
<feBlend mode="normal" in="SourceGraphic" in2="BackgroundImageFix" result="shape"/>
<feGaussianBlur stdDeviation="50" result="effect1_foregroundBlur"/>
</filter>
<filter id="filter50_f" x="89.5879" y="12.9717" width="311.283" height="337.255" filterUnits="userSpaceOnUse" color-interpolation-filters="sRGB">
<feFlood flood-opacity="0" result="BackgroundImageFix"/>
<feBlend mode="normal" in="SourceGraphic" in2="BackgroundImageFix" result="shape"/>
<feGaussianBlur stdDeviation="50" result="effect1_foregroundBlur"/>
</filter>
<filter id="filter51_f" x="125.097" y="36.1035" width="311.283" height="337.255" filterUnits="userSpaceOnUse" color-interpolation-filters="sRGB">
<feFlood flood-opacity="0" result="BackgroundImageFix"/>
<feBlend mode="normal" in="SourceGraphic" in2="BackgroundImageFix" result="shape"/>
<feGaussianBlur stdDeviation="50" result="effect1_foregroundBlur"/>
</filter>
<filter id="filter52_f" x="15.353" y="-31.6797" width="340.831" height="274.906" filterUnits="userSpaceOnUse" color-interpolation-filters="sRGB">
<feFlood flood-opacity="0" result="BackgroundImageFix"/>
<feBlend mode="normal" in="SourceGraphic" in2="BackgroundImageFix" result="shape"/>
<feGaussianBlur stdDeviation="50" result="effect1_foregroundBlur"/>
</filter>
<filter id="filter53_d" x="193.601" y="169.913" width="90.742" height="101.232" filterUnits="userSpaceOnUse" color-interpolation-filters="sRGB">
<feFlood flood-opacity="0" result="BackgroundImageFix"/>
<feColorMatrix in="SourceAlpha" type="matrix" values="0 0 0 0 0 0 0 0 0 0 0 0 0 0 0 0 0 0 127 0"/>
<feOffset dy="4"/>
<feGaussianBlur stdDeviation="5"/>
<feColorMatrix type="matrix" values="0 0 0 0 0 0 0 0 0 0 0 0 0 0 0 0 0 0 0.4 0"/>
<feBlend mode="normal" in2="BackgroundImageFix" result="effect1_dropShadow"/>
<feBlend mode="normal" in="SourceGraphic" in2="effect1_dropShadow" result="shape"/>
</filter>
<filter id="filter54_d" x="173.696" y="126.913" width="129.475" height="75.41" filterUnits="userSpaceOnUse" color-interpolation-filters="sRGB">
<feFlood flood-opacity="0" result="BackgroundImageFix"/>
<feColorMatrix in="SourceAlpha" type="matrix" values="0 0 0 0 0 0 0 0 0 0 0 0 0 0 0 0 0 0 127 0"/>
<feOffset dy="4"/>
<feGaussianBlur stdDeviation="5"/>
<feColorMatrix type="matrix" values="0 0 0 0 0 0 0 0 0 0 0 0 0 0 0 0 0 0 0.4 0"/>
<feBlend mode="normal" in2="BackgroundImageFix" result="effect1_dropShadow"/>
<feBlend mode="normal" in="SourceGraphic" in2="effect1_dropShadow" result="shape"/>
</filter>
<filter id="filter55_d" x="183.65" y="142.515" width="83.7485" height="60.8851" filterUnits="userSpaceOnUse" color-interpolation-filters="sRGB">
<feFlood flood-opacity="0" result="BackgroundImageFix"/>
<feColorMatrix in="SourceAlpha" type="matrix" values="0 0 0 0 0 0 0 0 0 0 0 0 0 0 0 0 0 0 127 0"/>
<feOffset dy="4"/>
<feGaussianBlur stdDeviation="5"/>
<feColorMatrix type="matrix" values="0 0 0 0 0 0 0 0 0 0 0 0 0 0 0 0 0 0 0.4 0"/>
<feBlend mode="normal" in2="BackgroundImageFix" result="effect1_dropShadow"/>
<feBlend mode="normal" in="SourceGraphic" in2="effect1_dropShadow" result="shape"/>
</filter>
</defs>
</svg>
