<svg width="324" height="307" viewBox="0 0 324 307" fill="none" xmlns="http://www.w3.org/2000/svg">
<g filter="url(#filter0_i)">
<path d="M216.321 45.5982C232.156 78.1602 235.679 83.0039 245.716 92.7956C269.586 116.084 292.484 116.911 302.612 161.385C316.183 220.979 237.881 223.034 216.321 244.611C188.738 272.214 141.445 284.682 101.189 272.214C58.56 259.011 36.2244 215.602 61.2781 175.353C80.4112 144.616 106.238 148.179 114.584 122.635C129.115 78.1599 125.729 71.8144 143.207 45.598C158.194 23.1169 203.621 19.4837 216.321 45.5982Z" fill="#F8F8F8"/>
</g>
<mask id="mask0" mask-type="alpha" maskUnits="userSpaceOnUse" x="50" y="27" width="255" height="251">
<path d="M216.321 45.5977C233.887 72.9227 239.584 82.0311 245.716 92.7951C264.347 125.503 292.484 116.91 302.612 161.385C316.183 220.979 237.881 223.034 216.321 244.61C188.738 272.214 141.445 284.682 101.189 272.214C58.5602 259.011 36.2246 215.601 61.2782 175.353C80.4114 144.616 106.238 148.178 114.584 122.634C129.115 78.1595 125.729 71.814 143.207 45.5975C158.194 23.1165 200.618 21.1709 216.321 45.5977Z" fill="#EDF0F8"/>
</mask>
<g mask="url(#mask0)">
<ellipse cx="260.789" cy="226.626" rx="24.1072" ry="71.0753" transform="rotate(78.9196 260.789 226.626)" fill="#6CB2C3"/>
<g filter="url(#filter1_d)">
<path d="M312.838 178.861L271.836 157.392L262.295 177.271L242.004 208.68L234.125 222.068C229.482 229.959 237.003 239.423 245.738 236.681L314.082 215.232C318.82 213.745 321.749 209.007 320.961 204.104L318.073 186.133C317.572 183.019 315.632 180.324 312.838 178.861Z" fill="#FF9090"/>
</g>
<g filter="url(#filter2_d)">
<path d="M216.726 204.779C221.413 193.731 232.455 178.377 232.455 178.377L263.487 153.417L271.439 156.995L276.607 159.778C276.607 159.778 252.219 197.495 247.622 213.767C246.25 218.623 245.009 224.773 244.046 230.176C242.895 236.629 236.081 240.526 230.024 238.02L217.153 232.694C212.68 230.843 210.173 226.053 211.4 221.37C212.749 216.225 214.66 209.648 216.726 204.779Z" fill="#FF9090"/>
</g>
<g filter="url(#filter3_d)">
<path d="M179.2 116.045C172.795 113.668 163.084 112.654 163.084 112.654L150.725 135.685C150.725 135.685 154.246 138.575 158.59 141.864C170.022 150.521 181.031 155.424 193.418 162.649C211.775 173.357 240.315 182.214 245.425 183.757C245.957 183.918 246.487 184.124 247.043 184.11C248.465 184.075 251.79 183.109 257.456 176.692C264.754 168.427 266.77 163.275 267.193 160.435C267.47 158.57 266.142 157.126 264.478 156.24C253.544 150.418 209.503 127.286 179.2 116.045Z" fill="#3C3D75"/>
</g>
<g filter="url(#filter4_d)">
<path d="M79.6618 84.4172L96.1062 83.4432L82.1909 94.1779L78.2316 92.4496C76.0856 91.5128 75.1219 89.0006 76.0908 86.869C76.7345 85.4528 78.109 84.5092 79.6618 84.4172Z" fill="#3C3D75"/>
</g>
<g filter="url(#filter5_d)">
<path d="M68.7111 108.722C78.8218 99.7341 85.5631 96.9254 85.5631 96.9254L95.6744 98.6106L74.8901 117.148C74.8901 117.148 68.603 118.563 66.464 116.025C64.8836 114.149 65.8398 111.274 68.7111 108.722Z" fill="#3C3D75"/>
</g>
<g filter="url(#filter6_d)">
<path d="M82.1929 94.1163L88.9338 99.7337L125.447 97.4867L96.2364 83.4432L88.9338 86.8137C85.748 89.0304 82.1929 94.1163 82.1929 94.1163Z" fill="#3C3D75"/>
</g>
<g filter="url(#filter7_d)">
<path d="M156.459 108.43C153.71 107.67 146.646 108.43 146.646 108.43L149.156 120.227L136.659 126.779C136.659 126.779 140.168 131.742 141.854 133.147C144.518 135.367 147.373 136.561 150.841 136.517C156.682 136.443 160.858 134.283 163.761 129.215C166.291 124.799 166.194 117.98 164.885 115.171C163.576 112.362 160.52 109.554 156.459 108.43Z" fill="#3C3D75"/>
</g>
<g filter="url(#filter8_d)">
<path d="M86.6868 100.857C95.5356 94.4763 105.115 93.0187 115.897 94.6774C130.503 96.9241 150.164 109.844 150.164 109.844C150.164 109.844 152.055 118.894 148.478 123.888C145.507 128.036 137.805 128.382 137.805 128.382C137.805 128.382 126.087 121.2 117.583 117.147C110.666 113.851 106.707 110.968 99.045 110.968C91.3827 110.968 86.6868 117.147 81.0694 118.832C78.2503 119.678 75.0427 118.317 74.3285 115.462C73.2044 110.968 80.6263 105.227 86.6868 100.857Z" fill="#3C3D75"/>
</g>
</g>
<g filter="url(#filter9_d)">
<path d="M179.2 116.045C172.795 113.668 163.084 112.654 163.084 112.654L150.725 135.685C150.725 135.685 154.246 138.575 158.59 141.864C170.022 150.521 181.031 155.424 193.418 162.649C211.775 173.357 240.315 182.214 245.425 183.757C245.957 183.918 246.487 184.124 247.043 184.11C248.465 184.075 251.79 183.109 257.456 176.692C264.754 168.427 266.77 163.275 267.193 160.435C267.47 158.57 266.142 157.126 264.478 156.24C253.544 150.418 209.503 127.286 179.2 116.045Z" fill="#3C3D75"/>
</g>
<g filter="url(#filter10_d)">
<path d="M79.6618 84.4172L96.1062 83.4432L82.1909 94.1779L78.2316 92.4496C76.0856 91.5128 75.1219 89.0006 76.0908 86.869C76.7345 85.4528 78.109 84.5092 79.6618 84.4172Z" fill="#3C3D75"/>
</g>
<g filter="url(#filter11_d)">
<path d="M68.7111 108.722C78.8218 99.7341 85.5631 96.9254 85.5631 96.9254L95.6744 98.6106L74.8901 117.148C74.8901 117.148 68.603 118.563 66.464 116.025C64.8836 114.149 65.8398 111.274 68.7111 108.722Z" fill="#3C3D75"/>
</g>
<g filter="url(#filter12_d)">
<path d="M82.1929 94.1163L88.9338 99.7337L125.447 97.4867L96.2364 83.4432L88.9338 86.8137C85.748 89.0304 82.1929 94.1163 82.1929 94.1163Z" fill="#3C3D75"/>
</g>
<g filter="url(#filter13_d)">
<path d="M156.459 108.43C153.71 107.67 146.646 108.43 146.646 108.43L149.156 120.227L136.659 126.779C136.659 126.779 140.168 131.742 141.854 133.147C144.518 135.367 147.373 136.561 150.841 136.517C156.682 136.443 160.858 134.283 163.761 129.215C166.291 124.799 166.194 117.98 164.885 115.171C163.576 112.362 160.52 109.554 156.459 108.43Z" fill="#3C3D75"/>
</g>
<g filter="url(#filter14_d)">
<path d="M86.6868 100.857C95.5356 94.4763 105.115 93.0187 115.897 94.6774C130.503 96.9241 150.164 109.844 150.164 109.844C150.164 109.844 152.055 118.894 148.478 123.888C145.507 128.036 137.805 128.382 137.805 128.382C137.805 128.382 126.087 121.2 117.583 117.147C110.666 113.851 106.707 110.968 99.045 110.968C91.3827 110.968 86.6868 117.147 81.0694 118.832C78.2503 119.678 75.0427 118.317 74.3285 115.462C73.2044 110.968 80.6263 105.227 86.6868 100.857Z" fill="#3C3D75"/>
</g>
<defs>
<filter id="filter0_i" x="50.7764" y="23.3494" width="257.405" height="253.706" filterUnits="userSpaceOnUse" color-interpolation-filters="sRGB">
<feFlood flood-opacity="0" result="BackgroundImageFix"/>
<feBlend mode="normal" in="SourceGraphic" in2="BackgroundImageFix" result="shape"/>
<feColorMatrix in="SourceAlpha" type="matrix" values="0 0 0 0 0 0 0 0 0 0 0 0 0 0 0 0 0 0 127 0" result="hardAlpha"/>
<feOffset dx="4" dy="-4"/>
<feGaussianBlur stdDeviation="5"/>
<feComposite in2="hardAlpha" operator="arithmetic" k2="-1" k3="1"/>
<feColorMatrix type="matrix" values="0 0 0 0 0 0 0 0 0 0 0 0 0 0 0 0 0 0 0.25 0"/>
<feBlend mode="normal" in2="shape" result="effect1_innerShadow"/>
</filter>
<filter id="filter1_d" x="226.708" y="151.392" width="108.381" height="99.7727" filterUnits="userSpaceOnUse" color-interpolation-filters="sRGB">
<feFlood flood-opacity="0" result="BackgroundImageFix"/>
<feColorMatrix in="SourceAlpha" type="matrix" values="0 0 0 0 0 0 0 0 0 0 0 0 0 0 0 0 0 0 127 0"/>
<feOffset dx="4" dy="4"/>
<feGaussianBlur stdDeviation="5"/>
<feColorMatrix type="matrix" values="0 0 0 0 0 0 0 0 0 0 0 0 0 0 0 0 0 0 0.25 0"/>
<feBlend mode="normal" in2="BackgroundImageFix" result="effect1_dropShadow"/>
<feBlend mode="normal" in="SourceGraphic" in2="effect1_dropShadow" result="shape"/>
</filter>
<filter id="filter2_d" x="205.089" y="147.417" width="85.5178" height="105.371" filterUnits="userSpaceOnUse" color-interpolation-filters="sRGB">
<feFlood flood-opacity="0" result="BackgroundImageFix"/>
<feColorMatrix in="SourceAlpha" type="matrix" values="0 0 0 0 0 0 0 0 0 0 0 0 0 0 0 0 0 0 127 0"/>
<feOffset dx="4" dy="4"/>
<feGaussianBlur stdDeviation="5"/>
<feColorMatrix type="matrix" values="0 0 0 0 0 0 0 0 0 0 0 0 0 0 0 0 0 0 0.25 0"/>
<feBlend mode="normal" in2="BackgroundImageFix" result="effect1_dropShadow"/>
<feBlend mode="normal" in="SourceGraphic" in2="effect1_dropShadow" result="shape"/>
</filter>
<filter id="filter3_d" x="144.725" y="106.654" width="136.504" height="91.4566" filterUnits="userSpaceOnUse" color-interpolation-filters="sRGB">
<feFlood flood-opacity="0" result="BackgroundImageFix"/>
<feColorMatrix in="SourceAlpha" type="matrix" values="0 0 0 0 0 0 0 0 0 0 0 0 0 0 0 0 0 0 127 0"/>
<feOffset dx="4" dy="4"/>
<feGaussianBlur stdDeviation="5"/>
<feColorMatrix type="matrix" values="0 0 0 0 0 0 0 0 0 0 0 0 0 0 0 0 0 0 0.25 0"/>
<feBlend mode="normal" in2="BackgroundImageFix" result="effect1_dropShadow"/>
<feBlend mode="normal" in="SourceGraphic" in2="effect1_dropShadow" result="shape"/>
</filter>
<filter id="filter4_d" x="69.7136" y="77.4432" width="40.3925" height="30.7346" filterUnits="userSpaceOnUse" color-interpolation-filters="sRGB">
<feFlood flood-opacity="0" result="BackgroundImageFix"/>
<feColorMatrix in="SourceAlpha" type="matrix" values="0 0 0 0 0 0 0 0 0 0 0 0 0 0 0 0 0 0 127 0"/>
<feOffset dx="4" dy="4"/>
<feGaussianBlur stdDeviation="5"/>
<feColorMatrix type="matrix" values="0 0 0 0 0 0 0 0 0 0 0 0 0 0 0 0 0 0 0.25 0"/>
<feBlend mode="normal" in2="BackgroundImageFix" result="effect1_dropShadow"/>
<feBlend mode="normal" in="SourceGraphic" in2="effect1_dropShadow" result="shape"/>
</filter>
<filter id="filter5_d" x="59.7056" y="90.9254" width="49.9689" height="40.616" filterUnits="userSpaceOnUse" color-interpolation-filters="sRGB">
<feFlood flood-opacity="0" result="BackgroundImageFix"/>
<feColorMatrix in="SourceAlpha" type="matrix" values="0 0 0 0 0 0 0 0 0 0 0 0 0 0 0 0 0 0 127 0"/>
<feOffset dx="4" dy="4"/>
<feGaussianBlur stdDeviation="5"/>
<feColorMatrix type="matrix" values="0 0 0 0 0 0 0 0 0 0 0 0 0 0 0 0 0 0 0.25 0"/>
<feBlend mode="normal" in2="BackgroundImageFix" result="effect1_dropShadow"/>
<feBlend mode="normal" in="SourceGraphic" in2="effect1_dropShadow" result="shape"/>
</filter>
<filter id="filter6_d" x="76.1929" y="77.4432" width="63.254" height="36.2905" filterUnits="userSpaceOnUse" color-interpolation-filters="sRGB">
<feFlood flood-opacity="0" result="BackgroundImageFix"/>
<feColorMatrix in="SourceAlpha" type="matrix" values="0 0 0 0 0 0 0 0 0 0 0 0 0 0 0 0 0 0 127 0"/>
<feOffset dx="4" dy="4"/>
<feGaussianBlur stdDeviation="5"/>
<feColorMatrix type="matrix" values="0 0 0 0 0 0 0 0 0 0 0 0 0 0 0 0 0 0 0.25 0"/>
<feBlend mode="normal" in2="BackgroundImageFix" result="effect1_dropShadow"/>
<feBlend mode="normal" in="SourceGraphic" in2="effect1_dropShadow" result="shape"/>
</filter>
<filter id="filter7_d" x="130.659" y="102.092" width="49.1292" height="48.4261" filterUnits="userSpaceOnUse" color-interpolation-filters="sRGB">
<feFlood flood-opacity="0" result="BackgroundImageFix"/>
<feColorMatrix in="SourceAlpha" type="matrix" values="0 0 0 0 0 0 0 0 0 0 0 0 0 0 0 0 0 0 127 0"/>
<feOffset dx="4" dy="4"/>
<feGaussianBlur stdDeviation="5"/>
<feColorMatrix type="matrix" values="0 0 0 0 0 0 0 0 0 0 0 0 0 0 0 0 0 0 0.25 0"/>
<feBlend mode="normal" in2="BackgroundImageFix" result="effect1_dropShadow"/>
<feBlend mode="normal" in="SourceGraphic" in2="effect1_dropShadow" result="shape"/>
</filter>
<filter id="filter8_d" x="68.2146" y="80.0459" width="96.4487" height="54.336" filterUnits="userSpaceOnUse" color-interpolation-filters="sRGB">
<feFlood flood-opacity="0" result="BackgroundImageFix"/>
<feColorMatrix in="SourceAlpha" type="matrix" values="0 0 0 0 0 0 0 0 0 0 0 0 0 0 0 0 0 0 127 0"/>
<feOffset dx="4" dy="-4"/>
<feGaussianBlur stdDeviation="5"/>
<feColorMatrix type="matrix" values="0 0 0 0 0 0 0 0 0 0 0 0 0 0 0 0 0 0 0.25 0"/>
<feBlend mode="normal" in2="BackgroundImageFix" result="effect1_dropShadow"/>
<feBlend mode="normal" in="SourceGraphic" in2="effect1_dropShadow" result="shape"/>
</filter>
<filter id="filter9_d" x="144.725" y="106.654" width="136.504" height="91.4566" filterUnits="userSpaceOnUse" color-interpolation-filters="sRGB">
<feFlood flood-opacity="0" result="BackgroundImageFix"/>
<feColorMatrix in="SourceAlpha" type="matrix" values="0 0 0 0 0 0 0 0 0 0 0 0 0 0 0 0 0 0 127 0"/>
<feOffset dx="4" dy="4"/>
<feGaussianBlur stdDeviation="5"/>
<feColorMatrix type="matrix" values="0 0 0 0 0 0 0 0 0 0 0 0 0 0 0 0 0 0 0.25 0"/>
<feBlend mode="normal" in2="BackgroundImageFix" result="effect1_dropShadow"/>
<feBlend mode="normal" in="SourceGraphic" in2="effect1_dropShadow" result="shape"/>
</filter>
<filter id="filter10_d" x="69.7136" y="77.4432" width="40.3925" height="30.7346" filterUnits="userSpaceOnUse" color-interpolation-filters="sRGB">
<feFlood flood-opacity="0" result="BackgroundImageFix"/>
<feColorMatrix in="SourceAlpha" type="matrix" values="0 0 0 0 0 0 0 0 0 0 0 0 0 0 0 0 0 0 127 0"/>
<feOffset dx="4" dy="4"/>
<feGaussianBlur stdDeviation="5"/>
<feColorMatrix type="matrix" values="0 0 0 0 0 0 0 0 0 0 0 0 0 0 0 0 0 0 0.25 0"/>
<feBlend mode="normal" in2="BackgroundImageFix" result="effect1_dropShadow"/>
<feBlend mode="normal" in="SourceGraphic" in2="effect1_dropShadow" result="shape"/>
</filter>
<filter id="filter11_d" x="59.7056" y="90.9254" width="49.9689" height="40.616" filterUnits="userSpaceOnUse" color-interpolation-filters="sRGB">
<feFlood flood-opacity="0" result="BackgroundImageFix"/>
<feColorMatrix in="SourceAlpha" type="matrix" values="0 0 0 0 0 0 0 0 0 0 0 0 0 0 0 0 0 0 127 0"/>
<feOffset dx="4" dy="4"/>
<feGaussianBlur stdDeviation="5"/>
<feColorMatrix type="matrix" values="0 0 0 0 0 0 0 0 0 0 0 0 0 0 0 0 0 0 0.25 0"/>
<feBlend mode="normal" in2="BackgroundImageFix" result="effect1_dropShadow"/>
<feBlend mode="normal" in="SourceGraphic" in2="effect1_dropShadow" result="shape"/>
</filter>
<filter id="filter12_d" x="76.1929" y="77.4432" width="63.254" height="36.2905" filterUnits="userSpaceOnUse" color-interpolation-filters="sRGB">
<feFlood flood-opacity="0" result="BackgroundImageFix"/>
<feColorMatrix in="SourceAlpha" type="matrix" values="0 0 0 0 0 0 0 0 0 0 0 0 0 0 0 0 0 0 127 0"/>
<feOffset dx="4" dy="4"/>
<feGaussianBlur stdDeviation="5"/>
<feColorMatrix type="matrix" values="0 0 0 0 0 0 0 0 0 0 0 0 0 0 0 0 0 0 0.25 0"/>
<feBlend mode="normal" in2="BackgroundImageFix" result="effect1_dropShadow"/>
<feBlend mode="normal" in="SourceGraphic" in2="effect1_dropShadow" result="shape"/>
</filter>
<filter id="filter13_d" x="130.659" y="102.092" width="49.1292" height="48.4261" filterUnits="userSpaceOnUse" color-interpolation-filters="sRGB">
<feFlood flood-opacity="0" result="BackgroundImageFix"/>
<feColorMatrix in="SourceAlpha" type="matrix" values="0 0 0 0 0 0 0 0 0 0 0 0 0 0 0 0 0 0 127 0"/>
<feOffset dx="4" dy="4"/>
<feGaussianBlur stdDeviation="5"/>
<feColorMatrix type="matrix" values="0 0 0 0 0 0 0 0 0 0 0 0 0 0 0 0 0 0 0.25 0"/>
<feBlend mode="normal" in2="BackgroundImageFix" result="effect1_dropShadow"/>
<feBlend mode="normal" in="SourceGraphic" in2="effect1_dropShadow" result="shape"/>
</filter>
<filter id="filter14_d" x="68.2146" y="80.0459" width="96.4487" height="54.336" filterUnits="userSpaceOnUse" color-interpolation-filters="sRGB">
<feFlood flood-opacity="0" result="BackgroundImageFix"/>
<feColorMatrix in="SourceAlpha" type="matrix" values="0 0 0 0 0 0 0 0 0 0 0 0 0 0 0 0 0 0 127 0"/>
<feOffset dx="4" dy="-4"/>
<feGaussianBlur stdDeviation="5"/>
<feColorMatrix type="matrix" values="0 0 0 0 0 0 0 0 0 0 0 0 0 0 0 0 0 0 0.25 0"/>
<feBlend mode="normal" in2="BackgroundImageFix" result="effect1_dropShadow"/>
<feBlend mode="normal" in="SourceGraphic" in2="effect1_dropShadow" result="shape"/>
</filter>
</defs>
</svg>
