<svg width="531" height="280" viewBox="0 0 531 280" fill="none" xmlns="http://www.w3.org/2000/svg">
<g filter="url(#filter0_d)">
<path d="M398.868 309.226C413.657 314.228 424.958 307.011 424.958 307.011C424.958 307.011 414.635 319.151 410.262 326.604C401.79 341.041 377.581 387.785 332.198 393.698C317.163 395.658 278.396 388.005 261.573 358.286C254.608 345.983 251.293 311.759 233.655 283.494C220.278 262.056 171.434 185.677 162.862 159.972C162.862 159.972 153.169 142.257 166.071 132.795C176.707 124.994 195.424 153.771 195.424 153.771C195.424 153.771 175.491 120.487 191.147 110.343C209.913 98.1836 223.585 136.311 223.585 136.311C223.585 136.311 213.197 87.8164 238.215 82.3631C266.622 76.1711 262.674 128.466 262.674 128.466C262.674 128.466 271.418 118.888 279.044 114.863C286.671 110.839 296.926 108.894 303.261 115.969C312.947 126.788 297.047 148.072 296.324 159.518C295.996 164.717 296.849 175.738 303.012 192.068C316.581 228.017 330.384 244.952 357.021 274.703C368.279 287.276 381.715 303.424 398.868 309.226Z" fill="#3C3D75"/>
</g>
<mask id="mask0" mask-type="alpha" maskUnits="userSpaceOnUse" x="124" y="70" width="332" height="338">
<path d="M398.869 309.226C413.657 314.228 424.958 307.011 424.958 307.011C424.958 307.011 414.635 319.151 410.262 326.604C401.79 341.041 377.582 387.785 332.199 393.698C317.163 395.658 278.397 388.005 261.573 358.286C254.609 345.983 251.293 311.759 233.656 283.494C220.278 262.056 171.435 185.677 162.862 159.972C162.862 159.972 153.169 142.257 166.071 132.795C176.707 124.994 195.424 153.771 195.424 153.771C195.424 153.771 175.491 120.487 191.147 110.343C209.913 98.1836 223.585 136.311 223.585 136.311C223.585 136.311 213.197 87.8164 238.215 82.3631C266.622 76.1711 262.674 128.466 262.674 128.466C262.674 128.466 271.418 118.888 279.045 114.863C286.671 110.839 296.926 108.894 303.262 115.969C312.948 126.788 297.047 148.072 296.324 159.518C295.996 164.717 296.849 175.738 303.013 192.068C316.581 228.017 330.384 244.952 357.021 274.703C368.279 287.276 381.715 303.424 398.869 309.226Z" fill="#E35931"/>
</mask>
<g mask="url(#mask0)">
<g filter="url(#filter1_f)">
<rect x="174.519" y="28.001" width="150.031" height="116.553" transform="rotate(5.15246 174.519 28.001)" fill="#313131" fill-opacity="0.2"/>
</g>
<g filter="url(#filter2_f)">
<rect x="199.003" y="276.729" width="150.031" height="49.1675" transform="rotate(-28.5924 199.003 276.729)" fill="#313131" fill-opacity="0.2"/>
</g>
<g filter="url(#filter3_f)">
<rect x="151.12" y="185.686" width="168.633" height="49.1675" transform="rotate(-16.5641 151.12 185.686)" fill="white" fill-opacity="0.15"/>
</g>
<g filter="url(#filter4_f)">
<rect x="332.695" y="394.643" width="150.031" height="49.1675" transform="rotate(-50.1163 332.695 394.643)" fill="#313131" fill-opacity="0.2"/>
</g>
</g>
<g filter="url(#filter5_d)">
<path d="M357.678 -96.6517C360.947 -113.226 387.409 -128.073 387.409 -128.073C387.409 -128.073 371.639 -126.406 362.3 -126.309C344.207 -126.121 285.585 -132.106 255.618 -92.6805C245.691 -79.6191 227.21 -47.2074 250.808 -7.32982C258.593 5.82572 288.89 27.3455 305.895 59.1069C318.792 83.1959 364.106 170.132 383.589 192.006C383.589 192.006 400.799 209.023 412.581 203.009C426.074 196.122 416.351 170.207 416.351 170.207C416.351 170.207 431.73 198.264 445.334 192.146C467.218 182.304 448.181 153.991 448.181 153.991C448.181 153.991 485.445 180.298 496.893 163.008C514.26 136.776 466.838 115.248 466.838 115.248C466.838 115.248 480.507 113.089 488.399 107.196C494.567 102.591 502.836 93.8454 500.395 83.8667C498.205 74.9182 474.547 71.9391 455.838 66.9562C440.907 62.9793 429.735 58.4611 422.215 46.0774C400.649 10.5659 397.174 -12.1322 380.525 -51.9803C372.965 -70.0754 353.885 -77.4276 357.678 -96.6517Z" fill="#FF9090"/>
</g>
<mask id="mask1" mask-type="alpha" maskUnits="userSpaceOnUse" x="172" y="-169" width="409" height="400">
<path d="M357.677 -96.6522C360.947 -113.226 387.409 -128.074 387.409 -128.074C387.409 -128.074 371.639 -126.407 362.3 -126.31C344.207 -126.122 285.585 -132.106 255.618 -92.681C245.69 -79.6196 227.21 -47.2079 250.808 -7.3303C258.592 5.82523 288.89 27.345 305.895 59.1064C318.792 83.1954 364.106 170.132 383.589 192.005C383.589 192.005 400.799 209.023 412.581 203.009C426.074 196.122 416.351 170.207 416.351 170.207C416.351 170.207 431.73 198.264 445.334 192.146C467.218 182.304 448.181 153.991 448.181 153.991C448.181 153.991 485.445 180.297 496.892 163.008C514.26 136.776 466.837 115.248 466.837 115.248C466.837 115.248 480.507 113.089 488.399 107.196C494.566 102.59 502.836 93.8449 500.394 83.8662C498.205 74.9177 474.547 71.9386 455.838 66.9557C440.907 62.9788 429.735 58.4606 422.215 46.0769C400.649 10.5654 397.174 -12.1327 380.525 -51.9808C372.965 -70.0759 353.885 -77.428 357.677 -96.6522Z" fill="#F3A712"/>
</mask>
<g mask="url(#mask1)">
<g filter="url(#filter6_f)">
<rect x="364.662" y="111.144" width="178.191" height="92.4007" transform="rotate(4.52056 364.662 111.144)" fill="white" fill-opacity="0.2"/>
</g>
<g filter="url(#filter7_f)">
<rect x="234.362" y="-149.022" width="178.191" height="78.4393" transform="rotate(4.52056 234.362 -149.022)" fill="black" fill-opacity="0.2"/>
</g>
</g>
<defs>
<filter id="filter0_d" x="110.688" y="68.2617" width="350.771" height="357.523" filterUnits="userSpaceOnUse" color-interpolation-filters="sRGB">
<feFlood flood-opacity="0" result="BackgroundImageFix"/>
<feColorMatrix in="SourceAlpha" type="matrix" values="0 0 0 0 0 0 0 0 0 0 0 0 0 0 0 0 0 0 127 0"/>
<feOffset dx="-4" dy="8"/>
<feGaussianBlur stdDeviation="5"/>
<feColorMatrix type="matrix" values="0 0 0 0 0 0 0 0 0 0 0 0 0 0 0 0 0 0 0.5 0"/>
<feBlend mode="normal" in2="BackgroundImageFix" result="effect1_dropShadow"/>
<feBlend mode="normal" in="SourceGraphic" in2="effect1_dropShadow" result="shape"/>
</filter>
<filter id="filter1_f" x="84.0518" y="-51.999" width="319.892" height="289.556" filterUnits="userSpaceOnUse" color-interpolation-filters="sRGB">
<feFlood flood-opacity="0" result="BackgroundImageFix"/>
<feBlend mode="normal" in="SourceGraphic" in2="BackgroundImageFix" result="shape"/>
<feGaussianBlur stdDeviation="40" result="effect1_foregroundBlur"/>
</filter>
<filter id="filter2_f" x="119.003" y="124.928" width="315.265" height="274.973" filterUnits="userSpaceOnUse" color-interpolation-filters="sRGB">
<feFlood flood-opacity="0" result="BackgroundImageFix"/>
<feBlend mode="normal" in="SourceGraphic" in2="BackgroundImageFix" result="shape"/>
<feGaussianBlur stdDeviation="40" result="effect1_foregroundBlur"/>
</filter>
<filter id="filter3_f" x="71.1204" y="57.6104" width="335.652" height="255.202" filterUnits="userSpaceOnUse" color-interpolation-filters="sRGB">
<feFlood flood-opacity="0" result="BackgroundImageFix"/>
<feBlend mode="normal" in="SourceGraphic" in2="BackgroundImageFix" result="shape"/>
<feGaussianBlur stdDeviation="40" result="effect1_foregroundBlur"/>
</filter>
<filter id="filter4_f" x="252.695" y="199.517" width="293.933" height="306.654" filterUnits="userSpaceOnUse" color-interpolation-filters="sRGB">
<feFlood flood-opacity="0" result="BackgroundImageFix"/>
<feBlend mode="normal" in="SourceGraphic" in2="BackgroundImageFix" result="shape"/>
<feGaussianBlur stdDeviation="40" result="effect1_foregroundBlur"/>
</filter>
<filter id="filter5_d" x="160.518" y="-168.562" width="423.749" height="414.804" filterUnits="userSpaceOnUse" color-interpolation-filters="sRGB">
<feFlood flood-opacity="0" result="BackgroundImageFix"/>
<feColorMatrix in="SourceAlpha" type="matrix" values="0 0 0 0 0 0 0 0 0 0 0 0 0 0 0 0 0 0 127 0"/>
<feOffset dx="-4" dy="8"/>
<feGaussianBlur stdDeviation="4"/>
<feColorMatrix type="matrix" values="0 0 0 0 0 0 0 0 0 0 0 0 0 0 0 0 0 0 0.5 0"/>
<feBlend mode="normal" in2="BackgroundImageFix" result="effect1_dropShadow"/>
<feBlend mode="normal" in="SourceGraphic" in2="effect1_dropShadow" result="shape"/>
</filter>
<filter id="filter6_f" x="277.379" y="31.1436" width="344.92" height="266.158" filterUnits="userSpaceOnUse" color-interpolation-filters="sRGB">
<feFlood flood-opacity="0" result="BackgroundImageFix"/>
<feBlend mode="normal" in="SourceGraphic" in2="BackgroundImageFix" result="shape"/>
<feGaussianBlur stdDeviation="40" result="effect1_foregroundBlur"/>
</filter>
<filter id="filter7_f" x="148.18" y="-229.022" width="343.819" height="252.24" filterUnits="userSpaceOnUse" color-interpolation-filters="sRGB">
<feFlood flood-opacity="0" result="BackgroundImageFix"/>
<feBlend mode="normal" in="SourceGraphic" in2="BackgroundImageFix" result="shape"/>
<feGaussianBlur stdDeviation="40" result="effect1_foregroundBlur"/>
</filter>
</defs>
</svg>
