<svg width="368" height="232" viewBox="0 0 368 232" fill="none" xmlns="http://www.w3.org/2000/svg">
<g clip-path="url(#clip0)">
<g filter="url(#filter0_d)">
<path d="M57.4269 80.9817C42.887 72.3803 37.697 42.4845 37.697 42.4845C37.697 42.4845 34.0186 57.9098 31.0006 66.7486C25.1538 83.872 -0.0072859 137.157 27.191 178.54C36.2018 192.25 60.6111 220.468 106.07 211.494C121.067 208.533 151.447 187.129 187.058 181.669C214.066 177.529 311.13 163.746 338.242 152.657C338.242 152.657 360.019 142.095 358.271 128.982C356.269 113.966 328.596 114.506 328.596 114.506C328.596 114.506 360.172 109.346 358.932 94.481C356.938 70.5691 323.903 79.093 323.903 79.093C323.903 79.093 361.115 52.7135 348.623 36.1629C329.671 11.0522 293.582 48.6017 293.582 48.6017C293.582 48.6017 296.097 34.9934 293.168 25.5897C290.879 18.2405 285.385 7.53109 275.163 6.51069C265.996 5.59567 255.31 26.9123 244.383 42.8946C235.661 55.6501 227.681 64.6797 213.5 67.6481C172.834 76.1602 150.274 71.8793 107.157 74.3108C87.5768 75.4149 74.2915 90.9583 57.4269 80.9817Z" fill="#FF9090"/>
</g>
<mask id="mask0" mask-type="alpha" maskUnits="userSpaceOnUse" x="-36" y="-115" width="440" height="442">
<path d="M57.4266 80.9817C42.8867 72.3803 37.6966 42.4845 37.6966 42.4845C37.6966 42.4845 34.0183 57.9098 31.0002 66.7486C25.1534 83.872 -0.00761869 137.157 27.1907 178.54C36.2014 192.25 60.6108 220.468 106.07 211.494C121.067 208.533 151.446 187.129 187.057 181.669C214.066 177.529 311.129 163.746 338.242 152.657C338.242 152.657 360.019 142.095 358.271 128.982C356.269 113.966 328.595 114.506 328.595 114.506C328.595 114.506 360.172 109.346 358.932 94.481C356.938 70.5691 323.902 79.093 323.902 79.093C323.902 79.093 361.115 52.7135 348.623 36.1629C329.67 11.0522 293.581 48.6017 293.581 48.6017C293.581 48.6017 296.096 34.9934 293.167 25.5897C290.878 18.2405 285.385 7.53105 275.163 6.51069C265.996 5.59567 255.31 26.9123 244.382 42.8946C235.661 55.6501 227.681 64.6797 213.5 67.6481C172.834 76.1602 150.274 71.8793 107.156 74.3108C87.5765 75.4149 74.2912 90.9583 57.4266 80.9817Z" fill="#F3A712"/>
</mask>
<g mask="url(#mask0)">
<g filter="url(#filter1_f)">
<rect x="255.692" y="143.581" width="178.191" height="92.4007" transform="rotate(-66.0316 255.692 143.581)" fill="white" fill-opacity="0.2"/>
</g>
<g filter="url(#filter2_f)">
<rect x="-33.0129" y="179.825" width="178.191" height="78.4393" transform="rotate(-66.0316 -33.0129 179.825)" fill="black" fill-opacity="0.2"/>
</g>
</g>
</g>
<defs>
<filter id="filter0_d" x="-47.9997" y="-115" width="455.751" height="457.564" filterUnits="userSpaceOnUse" color-interpolation-filters="sRGB">
<feFlood flood-opacity="0" result="BackgroundImageFix"/>
<feColorMatrix in="SourceAlpha" type="matrix" values="0 0 0 0 0 0 0 0 0 0 0 0 0 0 0 0 0 0 127 0"/>
<feOffset dx="-4" dy="8"/>
<feGaussianBlur stdDeviation="4"/>
<feColorMatrix type="matrix" values="0 0 0 0 0 0 0 0 0 0 0 0 0 0 0 0 0 0 0.5 0"/>
<feBlend mode="normal" in2="BackgroundImageFix" result="effect1_dropShadow"/>
<feBlend mode="normal" in="SourceGraphic" in2="effect1_dropShadow" result="shape"/>
</filter>
<filter id="filter1_f" x="175.692" y="-99.2451" width="316.82" height="360.362" filterUnits="userSpaceOnUse" color-interpolation-filters="sRGB">
<feFlood flood-opacity="0" result="BackgroundImageFix"/>
<feBlend mode="normal" in="SourceGraphic" in2="BackgroundImageFix" result="shape"/>
<feGaussianBlur stdDeviation="40" result="effect1_foregroundBlur"/>
</filter>
<filter id="filter2_f" x="-113.013" y="-63.001" width="304.063" height="354.69" filterUnits="userSpaceOnUse" color-interpolation-filters="sRGB">
<feFlood flood-opacity="0" result="BackgroundImageFix"/>
<feBlend mode="normal" in="SourceGraphic" in2="BackgroundImageFix" result="shape"/>
<feGaussianBlur stdDeviation="40" result="effect1_foregroundBlur"/>
</filter>
<clipPath id="clip0">
<rect width="368" height="232" fill="white"/>
</clipPath>
</defs>
</svg>
