<svg width="364" height="220" viewBox="0 0 364 220" fill="none" xmlns="http://www.w3.org/2000/svg">
<g clip-path="url(#clip0)">
<g filter="url(#filter0_d)">
<path d="M306.55 63.8856C319.963 55.8963 321.823 42.6177 321.823 42.6177C321.823 42.6177 324.34 58.353 327.163 66.5199C332.63 82.3413 352.424 131.119 327.425 169.455C319.143 182.155 288.133 206.646 254.612 200.118C240.736 197.416 212.57 177.695 179.625 172.731C154.638 168.967 64.8446 156.452 39.7365 146.262C39.7365 146.262 19.9729 142.116 21.1658 126.162C22.1493 113.008 56.1849 117.484 56.1849 117.484C56.1849 117.484 17.9335 111.004 20.3981 92.5117C23.3521 70.3471 61.2152 84.7339 61.2152 84.7339C61.2152 84.7339 17.6069 61.1136 29.7209 38.5551C43.4759 12.9406 80.6565 49.9265 80.6565 49.9265C80.6565 49.9265 79.0597 37.0563 80.9568 28.6443C82.8539 20.2322 88.0406 11.1737 97.5353 10.9571C112.052 10.6259 117.896 36.5433 126.125 44.5308C129.864 48.1595 138.794 54.6733 155.212 60.6015C191.352 73.6516 213.194 74.1666 253.116 73.2557C269.989 72.8707 290.993 73.1523 306.55 63.8856Z" fill="#3C3D75"/>
</g>
<mask id="mask0" mask-type="alpha" maskUnits="userSpaceOnUse" x="-23" y="-105" width="411" height="412">
<path d="M306.551 63.8856C319.963 55.8963 321.823 42.6177 321.823 42.6177C321.823 42.6177 324.341 58.353 327.163 66.5199C332.63 82.3413 352.425 131.119 327.426 169.455C319.143 182.155 288.134 206.646 254.612 200.118C240.736 197.416 212.57 177.695 179.625 172.731C154.638 168.967 64.8448 156.452 39.7367 146.262C39.7367 146.262 19.9731 142.116 21.166 126.162C22.1495 113.008 56.185 117.484 56.185 117.484C56.185 117.484 17.9336 111.004 20.3983 92.5117C23.3523 70.3471 61.2154 84.7339 61.2154 84.7339C61.2154 84.7339 17.6071 61.1136 29.7211 38.5551C43.4761 12.9406 80.6567 49.9265 80.6567 49.9265C80.6567 49.9265 79.0599 37.0563 80.957 28.6443C82.8541 20.2322 88.0408 11.1737 97.5355 10.9571C112.053 10.6259 117.896 36.5433 126.125 44.5308C129.864 48.1595 138.794 54.6733 155.212 60.6015C191.352 73.6516 213.194 74.1666 253.116 73.2557C269.989 72.8707 290.993 73.1523 306.551 63.8856Z" fill="#E35931"/>
</mask>
<g mask="url(#mask0)">
<g filter="url(#filter1_f)">
<rect x="-52.9911" y="51.6372" width="150.031" height="116.553" transform="rotate(-44.315 -52.9911 51.6372)" fill="#313131" fill-opacity="0.2"/>
</g>
<g filter="url(#filter2_f)">
<rect x="151.963" y="194.672" width="150.031" height="49.1675" transform="rotate(-78.0598 151.963 194.672)" fill="#313131" fill-opacity="0.2"/>
</g>
<g filter="url(#filter3_f)">
<rect x="51.6489" y="171.897" width="168.633" height="49.1675" transform="rotate(-66.0316 51.6489 171.897)" fill="white" fill-opacity="0.15"/>
</g>
<g filter="url(#filter4_f)">
<rect x="328.466" y="169.691" width="150.031" height="49.1675" transform="rotate(-99.5838 328.466 169.691)" fill="#313131" fill-opacity="0.2"/>
</g>
</g>
</g>
<defs>
<filter id="filter0_d" x="-37" y="-107" width="430.981" height="431.9" filterUnits="userSpaceOnUse" color-interpolation-filters="sRGB">
<feFlood flood-opacity="0" result="BackgroundImageFix"/>
<feColorMatrix in="SourceAlpha" type="matrix" values="0 0 0 0 0 0 0 0 0 0 0 0 0 0 0 0 0 0 127 0"/>
<feOffset dx="-4" dy="8"/>
<feGaussianBlur stdDeviation="5"/>
<feColorMatrix type="matrix" values="0 0 0 0 0 0 0 0 0 0 0 0 0 0 0 0 0 0 0.5 0"/>
<feBlend mode="normal" in2="BackgroundImageFix" result="effect1_dropShadow"/>
<feBlend mode="normal" in="SourceGraphic" in2="effect1_dropShadow" result="shape"/>
</filter>
<filter id="filter1_f" x="-132.991" y="-133.175" width="348.773" height="348.207" filterUnits="userSpaceOnUse" color-interpolation-filters="sRGB">
<feFlood flood-opacity="0" result="BackgroundImageFix"/>
<feBlend mode="normal" in="SourceGraphic" in2="BackgroundImageFix" result="shape"/>
<feGaussianBlur stdDeviation="40" result="effect1_foregroundBlur"/>
</filter>
<filter id="filter2_f" x="71.963" y="-32.1138" width="239.144" height="316.958" filterUnits="userSpaceOnUse" color-interpolation-filters="sRGB">
<feFlood flood-opacity="0" result="BackgroundImageFix"/>
<feBlend mode="normal" in="SourceGraphic" in2="BackgroundImageFix" result="shape"/>
<feGaussianBlur stdDeviation="40" result="effect1_foregroundBlur"/>
</filter>
<filter id="filter3_f" x="-28.3511" y="-62.1938" width="273.432" height="334.065" filterUnits="userSpaceOnUse" color-interpolation-filters="sRGB">
<feFlood flood-opacity="0" result="BackgroundImageFix"/>
<feBlend mode="normal" in="SourceGraphic" in2="BackgroundImageFix" result="shape"/>
<feGaussianBlur stdDeviation="40" result="effect1_foregroundBlur"/>
</filter>
<filter id="filter4_f" x="223.487" y="-66.4326" width="233.46" height="316.123" filterUnits="userSpaceOnUse" color-interpolation-filters="sRGB">
<feFlood flood-opacity="0" result="BackgroundImageFix"/>
<feBlend mode="normal" in="SourceGraphic" in2="BackgroundImageFix" result="shape"/>
<feGaussianBlur stdDeviation="40" result="effect1_foregroundBlur"/>
</filter>
<clipPath id="clip0">
<rect width="364" height="220" fill="white"/>
</clipPath>
</defs>
</svg>
