<svg width="22" height="22" viewBox="0 0 22 22" fill="none" xmlns="http://www.w3.org/2000/svg">
<path fill-rule="evenodd" clip-rule="evenodd" d="M2 6C2 3.79086 3.79086 2 6 2H16C18.2091 2 20 3.79086 20 6V16C20 18.2091 18.2091 20 16 20H6C3.79086 20 2 18.2091 2 16V6ZM6 0C2.68629 0 0 2.68629 0 6V16C0 19.3137 2.68629 22 6 22H16C19.3137 22 22 19.3137 22 16V6C22 2.68629 19.3137 0 16 0H6ZM9.66155 8.29386C10.2217 8.00324 10.8591 7.89662 11.4833 7.98918C12.12 8.08359 12.7095 8.38028 13.1646 8.83541C13.6197 9.29054 13.9164 9.87999 14.0108 10.5167C14.1034 11.1409 13.9968 11.7783 13.7061 12.3384C13.4155 12.8985 12.9557 13.3527 12.392 13.6364C11.8284 13.9201 11.1896 14.0189 10.5667 13.9186C9.94366 13.8184 9.36814 13.5242 8.92194 13.0781C8.47575 12.6319 8.18161 12.0563 8.08137 11.4333C7.98112 10.8103 8.07986 10.1716 8.36356 9.60796C8.64725 9.04432 9.10145 8.58449 9.66155 8.29386ZM11.7767 6.01081C10.7364 5.85655 9.67391 6.03424 8.74041 6.51862C7.80691 7.00299 7.04992 7.76938 6.57709 8.70878C6.10426 9.64818 5.93969 10.7128 6.10677 11.7511C6.27385 12.7894 6.76408 13.7486 7.50773 14.4923C8.25138 15.2359 9.21059 15.7261 10.2489 15.8932C11.2872 16.0603 12.3518 15.8957 13.2912 15.4229C14.2306 14.9501 14.997 14.1931 15.4814 13.2596C15.9658 12.3261 16.1434 11.2636 15.9892 10.2233C15.8318 9.16216 15.3374 8.17975 14.5788 7.4212C13.8202 6.66264 12.8378 6.16817 11.7767 6.01081Z" fill="white"/>
</svg>
