<svg width="1035" height="937" viewBox="0 0 1035 937" fill="none" xmlns="http://www.w3.org/2000/svg" xmlns:xlink="http://www.w3.org/1999/xlink">
<g filter="url(#filter0_d)">
<path d="M296.117 176.085C258.917 202.898 250.541 279.941 214.813 339.921C198.828 366.758 178.413 386.623 159.722 405.663C133.718 432.153 107.557 473.572 110.46 523.895C113.364 574.218 173.966 624.14 228.176 642.67C282.386 661.2 325.226 647.116 380.625 674.269C404.224 685.836 414.515 697.724 438.203 709.108C492.311 735.111 547.216 757.737 604.799 770.033C616.498 772.531 677.17 783.676 698.59 755.423C728.042 716.575 659.799 675.128 616.697 642.907C579.868 615.375 509.338 577.054 535.712 534.088C562.014 491.241 616.569 528.784 669.219 556.103C715.848 580.298 778.327 622.121 803.635 581.815C823.703 549.855 789.715 507.125 767.431 479.634C726.225 428.801 644.11 368.806 644.11 368.806C644.11 368.806 610.59 344.798 589.322 329.359C532.463 288.085 527.828 235.155 471.044 193.778C420.094 156.651 353.483 134.735 296.117 176.085Z" fill="white"/>
</g>
<mask id="mask0" mask-type="alpha" maskUnits="userSpaceOnUse" x="64" y="107" width="824" height="779">
<path d="M296.121 176.084C258.921 202.897 250.545 279.94 214.817 339.92C198.832 366.758 178.417 386.622 159.726 405.662C133.722 432.152 107.561 473.571 110.464 523.894C113.368 574.217 173.97 624.139 228.18 642.669C282.39 661.199 325.23 647.115 380.629 674.268C404.228 685.835 414.519 697.723 438.207 709.107C492.315 735.11 547.22 757.736 604.803 770.032C616.502 772.53 677.174 783.675 698.594 755.422C728.046 716.574 659.803 675.127 616.701 642.906C579.872 615.374 509.342 577.053 535.716 534.088C562.018 491.24 616.573 528.783 669.223 556.102C715.852 580.297 778.331 622.12 803.639 581.814C823.707 549.854 789.719 507.124 767.435 479.633C726.229 428.8 644.114 368.805 644.114 368.805C644.114 368.805 610.594 344.797 589.326 329.358C532.467 288.084 527.832 235.154 471.048 193.777C420.098 156.65 353.487 134.734 296.121 176.084Z" fill="#F9F7F7"/>
</mask>
<g mask="url(#mask0)">
<rect x="335.254" y="196.704" width="632.861" height="283" transform="rotate(90 335.254 196.704)" fill="url(#pattern0)" fill-opacity="0.05"/>
<rect x="617.253" y="162.712" width="632.861" height="282" transform="rotate(90 617.253 162.712)" fill="url(#pattern1)" fill-opacity="0.05"/>
<rect x="899.254" y="172.71" width="632.861" height="282" transform="rotate(90 899.254 172.71)" fill="url(#pattern2)" fill-opacity="0.05"/>
</g>
<mask id="mask1" mask-type="alpha" maskUnits="userSpaceOnUse" x="244" y="245" width="309" height="309">
<circle r="112.14" transform="matrix(-0.517684 0.855572 0.855572 0.517684 398.372 399.102)" fill="#C4C4C4"/>
</mask>
<g mask="url(#mask1)">
<mask id="mask2" mask-type="alpha" maskUnits="userSpaceOnUse" x="-68" y="291" width="884" height="740">
<path d="M815.033 706.106L129.314 291.195L-67.1126 615.828L618.607 1030.74L815.033 706.106Z" fill="#C4C4C4"/>
</mask>
<g mask="url(#mask2)">
<g filter="url(#filter1_d)">
<path d="M103.648 471.181C86.6978 547.329 150.29 610.402 229.989 637.77C276.283 653.668 329.244 674.022 380.201 693.156C455.191 721.314 537.898 756.923 582.169 765.034C633.278 774.397 665.602 778.702 679.857 754.768C693.09 732.551 681.401 712.252 659.402 695.9C630.904 674.719 607.314 652.633 573.387 626.529C528.941 592.331 491.529 556.938 512.128 522.352C524.028 502.373 553.112 497.027 631.931 529.775C681.236 546.621 711.521 558.537 736.532 568.428C754.383 575.488 785.473 580.218 802.887 551.438C823.988 516.564 698.979 426.184 656.751 394.343C621.402 367.688 594.548 343.264 575.885 325.276C525.824 277.027 516.509 257.058 470.877 215.654C426.949 175.796 333.399 127.727 265.643 199.198C219.33 248.05 240.755 283.273 210.035 334.851C178.986 386.981 123.015 384.179 103.648 471.181Z" fill="white"/>
</g>
<g filter="url(#filter2_i)">
<path d="M356.986 219.179C295.159 254.569 304.654 316.236 270.086 372.655C237.806 425.34 176.411 451.076 173.89 513.967C171.839 565.135 228.594 604.439 254.951 616.586C363.44 666.584 432.632 683.592 533.288 731.09C598.708 761.96 667.417 766.028 668.442 738.058C669.468 710.088 580.961 651.923 543.219 625.541C505.476 599.159 468.393 550.964 493.674 508.519C515.524 471.832 574.915 490.881 615.494 504.193C650.343 515.624 770.034 570.547 784.807 545.744C804.348 512.935 667.253 431.417 594.482 369.742C510.111 298.234 412.65 187.316 356.986 219.179Z" fill="#FD9394"/>
</g>
<g filter="url(#filter3_i)">
<path d="M342.134 634.818C356.442 637.712 475.672 670.66 475.672 670.66L385.176 555.223C385.176 555.223 345.305 350.936 310.175 401.919C293.196 426.561 281.634 432.924 249.719 451.034C236.091 458.767 211.775 472.974 200.517 510.533C188.433 550.851 226.122 587.085 253.298 592.658C264.377 594.929 280.949 597.579 292.312 604.223C310.772 615.016 324.116 631.175 342.134 634.818Z" fill="#FF9090"/>
</g>
<g filter="url(#filter4_i)">
<path d="M329.451 608.775C345.002 623.692 439.746 640.721 439.746 640.721L341.398 475.651C341.398 475.651 319.124 441.224 291.662 451.55C277.239 456.973 262.59 453.048 250.497 471.188C204.628 539.995 254.601 574.632 277.572 582.814C291.416 587.745 303.694 584.855 312.038 588.778C318.507 591.819 321.184 600.845 329.451 608.775Z" fill="#FF9090"/>
</g>
<g filter="url(#filter5_i)">
<path d="M523.873 328.33C532.967 339.76 574.84 388.027 623.062 432.669C666.882 473.235 474.836 403.39 474.836 403.39C474.836 403.39 274.791 461.961 306.239 409.161C328.087 372.48 323.212 361.069 324.179 324.259C324.592 308.539 323.879 284.014 349.354 258.506C378.67 229.153 429.133 246.833 446.473 268.507C475.741 305.092 505.37 305.075 523.873 328.33Z" fill="#FF9090"/>
</g>
<g filter="url(#filter6_i)">
<path d="M506.183 334.772C526.253 341.773 573.947 412.679 573.947 412.679L385.827 400.991C385.827 400.991 322.28 398.254 327.803 369.8C330.348 356.691 338.655 334.785 344.287 313.722C364.461 238.269 435.897 274.787 449.14 294.69C458.055 308.088 471.626 327.149 479.481 329.11C487.336 331.071 496.948 331.551 506.183 334.772Z" fill="#FF9090"/>
</g>
<g filter="url(#filter7_i)">
<path d="M464.919 565.005C472.659 580.864 457.219 598.131 499.862 640.779C518.178 659.096 445.429 602.777 445.429 602.777L395.593 535.597L399.096 459.023L477.366 398.303C477.366 398.303 646.952 464.512 610.349 455.275C573.746 446.038 545.407 455.115 529.403 456.738C513.399 458.361 502.858 448.923 491.798 452.97C476.342 458.625 477.909 476.289 467.454 493.843C456.057 512.977 438.205 512.276 443.076 534.773C446.095 548.723 458.575 552.009 464.919 565.005Z" fill="#FF9090"/>
</g>
<g filter="url(#filter8_i)">
<path d="M368.258 296.193C332.658 316.358 335.69 361.603 314.911 396.491C292.825 433.573 256.986 451.585 245.318 483.037C226.073 534.916 290.246 573.607 326.352 562.219C337.599 558.671 352.017 553.212 360.255 563.996C368.494 574.781 366.488 595.96 443.315 650.505C520.143 705.05 669.779 756.294 669.779 756.294C669.779 756.294 672.357 752.894 675.085 750.192C679.677 745.645 679.703 742.439 679.703 742.439C679.703 742.439 547.736 686.516 482.467 622.777C432.925 574.397 409.9 534.066 443.697 478.183C479.073 419.688 533.549 429.003 601.078 452.057C677.432 478.124 763.575 547.7 763.575 547.7C763.575 547.7 768.286 546.508 769.569 542.674C770.852 538.839 771.801 535.15 771.801 535.15C771.801 535.15 686.252 463.058 615.937 427.111L615.171 426.719C574.626 405.991 515.98 376.009 479.346 377.303C460.201 377.979 463.457 357.408 462.26 342.87C459.663 311.323 414.298 270.115 368.258 296.193Z" fill="#FF9090"/>
</g>
<path d="M293.553 462.778C300.53 445.7 315.097 433.22 315.097 433.22C315.097 433.22 303.875 446.137 297.453 462.843C291.362 478.687 291.766 507.921 316.836 526.473C345.271 547.516 403.015 548.25 430.479 581.284L432.323 588.884C399.884 552.794 350.64 553.004 314.906 530.602C291.526 515.944 284.951 483.833 293.553 462.778Z" fill="#E4140D"/>
<path d="M353.312 361.766C343.105 372.562 336.352 396.797 336.352 396.797C336.352 396.797 345.305 373.784 356.171 363.521C368.846 351.55 395.548 336.819 423.527 354.001C452.459 371.768 463.954 415.338 510.243 432.1L513.86 430.436C469.338 410.869 463.259 374.214 425.659 350.421C401.057 334.854 368.452 345.752 353.312 361.766Z" fill="#E4140D"/>
<path d="M450.823 628.515C509.27 707.711 673.346 745.888 673.346 745.888L676.539 742.599C676.539 742.599 510.767 705.647 452.983 625.951C422.043 583.279 437.474 532.751 386.794 519.139C370.941 514.881 359.841 524.865 344.309 519.4C333.764 515.69 320.706 503.27 320.706 503.27C320.706 503.27 332.514 516.797 342.542 521.498C357.136 528.339 367.659 519.136 383.063 523.567C433.128 537.967 419.768 586.434 450.823 628.515Z" fill="#E4160E"/>
<path d="M384.94 505.285C387.093 513.713 395.116 523.306 395.116 523.306L405.723 529.779C405.723 529.779 390.167 514.969 388.392 504.197C386.39 492.049 399.902 486.396 396.53 474.47C394.133 465.993 382.943 455.983 382.943 455.983C382.943 455.983 392.529 467.232 394.163 475.273C396.663 487.573 381.824 493.089 384.94 505.285Z" fill="#E4160E"/>
<path d="M373.21 518.761C378.679 522.992 388.075 525.077 388.075 525.077L397.371 523.939C397.371 523.939 381.061 522.274 374.627 516.388C367.37 509.75 372.214 499.583 364.29 493.757C358.657 489.615 347.248 488.82 347.248 488.82C347.248 488.82 358.368 491.178 363.347 495.42C370.963 501.909 365.295 512.64 373.21 518.761Z" fill="#E4160E"/>
<g filter="url(#filter9_d)">
<path d="M451.06 627.855C517.188 701.117 676.638 745.409 676.638 745.409L680.524 742.301C680.524 742.301 519.72 697.124 453.339 624.029C429.29 597.548 421.144 559.463 409.945 533.395C404.884 521.615 403.793 507.327 394.517 504.836C378.665 500.578 367.565 510.563 352.033 505.098C341.488 501.387 328.43 488.967 328.43 488.967C328.43 488.967 340.238 502.494 350.266 507.195C364.86 514.036 375.383 504.833 390.787 509.264C398.965 511.616 399.761 525.121 404.823 535.878C416.818 561.372 425.985 600.075 451.06 627.855Z" fill="#6896A2"/>
<path d="M392.665 490.982C394.818 499.411 396.258 513.471 396.258 513.471L404.869 518.759C404.869 518.759 397.892 500.667 396.117 489.895C394.115 477.746 407.627 472.093 404.255 460.168C401.858 451.691 390.667 441.68 390.667 441.68C390.667 441.68 400.253 452.93 401.888 460.971C404.388 473.271 389.548 478.786 392.665 490.982Z" fill="#6896A2"/>
<path d="M380.935 504.46C386.404 508.691 395.8 510.776 395.8 510.776L401.86 511.189C401.86 511.189 388.786 507.972 382.352 502.086C375.095 495.449 379.939 485.282 372.015 479.456C366.382 475.314 354.973 474.519 354.973 474.519C354.973 474.519 366.093 476.877 371.072 481.119C378.688 487.608 373.02 498.338 380.935 504.46Z" fill="#6896A2"/>
</g>
<path d="M568.331 424.605C664.686 434.731 774.008 547.191 774.008 547.191L771.846 549.581C771.846 549.581 663.73 437.097 567.297 427.805C515.664 422.83 482.453 452.926 444.979 415.809C433.257 404.199 435.901 389.397 423.334 378.688C414.802 371.417 397.688 366.44 397.688 366.44C397.688 366.44 415.085 369.758 424.18 376.07C437.416 385.255 435.129 399.152 446.765 410.283C484.582 446.458 517.133 419.225 568.331 424.605Z" fill="#E4160E"/>
<path d="M432.432 421.328C440.593 418.865 452.75 420.912 452.75 420.912L463.626 426.816C463.626 426.816 443.226 420.895 433.298 424.893C422.101 429.402 424.325 444.075 412.609 447.276C404.281 449.552 390.145 444.962 390.145 444.962C390.145 444.962 404.493 447.518 412.063 444.802C423.642 440.649 420.621 424.891 432.432 421.328Z" fill="#E4160E"/>
<path d="M437.672 404.183C444.027 406.768 450.608 413.875 450.608 413.875L454.44 422.554C454.44 422.554 444.652 409.211 436.415 406.638C427.126 403.737 421.111 413.186 412.156 409.286C405.791 406.514 399.255 396.99 399.255 396.99C399.255 396.99 406.951 405.458 413.063 407.609C422.413 410.9 428.476 400.443 437.672 404.183Z" fill="#E4160E"/>
<g filter="url(#filter10_d)">
<path d="M569.261 420.949C649.284 436.61 772.568 549.632 772.568 549.632L774.342 554.859C774.342 554.859 646.319 441.589 568.227 424.149C517.28 412.772 490.537 440.918 437.898 428.921C421.974 425.292 428.82 402.509 416.253 391.8C407.72 384.528 390.607 379.552 390.607 379.552C390.607 379.552 408.003 382.87 417.099 389.182C430.334 398.367 424.091 420.182 439.684 423.394C489.537 433.665 518.507 411.017 569.261 420.949Z" fill="#6896A2"/>
<path d="M425.35 434.438C433.512 431.975 451.356 427.171 451.356 427.171L466.234 431.914C466.234 431.914 436.145 434.005 426.216 438.003C415.02 442.512 417.243 457.185 405.527 460.387C397.2 462.662 383.063 458.072 383.063 458.072C383.063 458.072 397.411 460.628 404.981 457.913C416.561 453.759 413.54 438.002 425.35 434.438Z" fill="#6896A2"/>
<path d="M405.984 420.716C415.334 424.007 421.397 413.55 430.593 417.29L429.336 419.745C420.046 416.844 414.031 426.293 405.077 422.393C398.712 419.62 392.175 410.097 392.175 410.097C392.175 410.097 399.872 418.564 405.984 420.716Z" fill="#6896A2"/>
</g>
</g>
<mask id="mask3" mask-type="alpha" maskUnits="userSpaceOnUse" x="129" y="-37" width="873" height="752">
<path d="M810 714.366L129.672 290.407L321.597 -36.989L1001.93 386.97L810 714.366Z" fill="#C4C4C4"/>
</mask>
<g mask="url(#mask3)">
<g filter="url(#filter11_d)">
<path d="M274.732 183.744C333.277 133.138 417.821 161.033 478.703 219.994C514.068 254.242 556.416 292.416 596.768 329.353C656.153 383.713 725.62 441.552 753.253 477.596C785.154 519.208 803.92 546.277 789.665 570.21C776.432 592.427 753.299 591.343 728.821 579.154C697.112 563.363 666.894 552.406 628.371 534.019C577.903 509.932 529.659 492.725 509.06 527.311C497.16 547.29 506.004 575.927 571.169 631.598C608.759 668.112 633.216 689.813 653.459 707.711C667.906 720.486 686.469 746.247 669.454 775.271C648.837 810.442 511.954 739.998 464.572 716.811C424.907 697.401 391.133 684.595 366.778 676.165C301.447 653.554 279.704 654.451 222.4 632.644C167.236 611.65 81.8663 549.848 112.738 455.727C133.84 391.392 174.51 394.301 205.231 342.724C236.28 290.595 207.843 241.562 274.732 183.744Z" fill="white"/>
</g>
<g filter="url(#filter12_i)">
<path d="M172.586 528.59C174.741 456.556 232.936 436.458 266.091 379.171C297.053 325.676 290.988 258.514 344.671 227.041C388.347 201.435 448.986 234.22 471.82 252.281C565.809 326.622 612.776 380.945 700.948 449.404C758.254 493.898 793.709 553.796 769.79 567.707C745.871 581.618 654.037 529.039 613.5 507.35C572.963 485.661 513.705 474.695 488.425 517.141C466.574 553.827 510.769 598.388 541.224 628.698C567.378 654.728 670.865 736.855 656.092 761.658C636.551 794.467 501.785 709.039 414.198 672.241C312.648 629.577 170.645 593.443 172.586 528.59Z" fill="#FD9394"/>
</g>
<g filter="url(#filter13_i)">
<path d="M528.209 322.217C537.376 333.739 621.484 425.657 621.484 425.657L478.774 397.885C478.774 397.885 282.079 456.901 310.232 401.634C323.839 374.922 324.02 361.569 324.995 324.46C325.411 308.612 326.51 280.149 354.041 252.583C383.594 222.992 432.7 240.058 450.181 261.909C457.308 270.817 467.314 284.488 478.387 291.622C496.373 303.21 516.663 307.706 528.209 322.217Z" fill="#FF9090"/>
</g>
<g filter="url(#filter14_i)">
<path d="M499.602 322.905C519.835 329.962 578.686 407.253 578.686 407.253L389.04 395.47C389.04 395.47 348.669 391.428 344.922 361.937C342.954 346.448 332.727 335.098 342.933 315.799C381.646 242.597 435.063 271.45 452.866 288.308C463.597 298.468 466.778 310.85 474.074 316.532C479.731 320.937 488.847 319.153 499.602 322.905Z" fill="#FF9090"/>
</g>
<g filter="url(#filter15_i)">
<path d="M345.287 627.973C359.479 630.843 421.024 646.083 482.355 668.716C538.086 689.283 387.982 549.019 387.982 549.019C387.982 549.019 346.169 341.926 314.721 394.726C292.873 431.407 280.657 432.323 249 450.287C235.48 457.958 213.758 468.706 203.341 503.461C191.353 543.455 230.208 580.624 257.166 586.152C302.667 595.482 316.411 622.134 345.287 627.973Z" fill="#FF9090"/>
</g>
<g filter="url(#filter16_i)">
<path d="M342.693 609.071C358.119 623.869 442.112 633.83 442.112 633.83L344.556 470.088C344.556 470.088 312.658 414.214 290.406 432.394C280.154 440.77 264.905 458.414 249.149 473.26C192.708 526.441 257.733 573.722 281.243 576.388C297.069 578.183 319.996 581.536 325.354 587.688C330.712 593.841 335.595 602.263 342.693 609.071Z" fill="#FF9090"/>
</g>
<g filter="url(#filter17_i)">
<path d="M524.338 465.049C541.764 464.646 549.654 442.742 606.655 461.284C631.137 469.248 548.231 429.982 548.231 429.982L466.493 416.365L401.332 455.075L384.72 553.658C384.72 553.658 521.223 675.414 496.168 646.788C471.113 618.161 465.87 588.462 459.853 573.316C453.837 558.17 440.709 553.075 439.103 541.25C436.858 524.725 452.992 517.931 463.448 500.376C474.844 481.242 465.942 465.514 487.826 459.446C501.395 455.684 510.056 465.38 524.338 465.049Z" fill="#FF9090"/>
</g>
<g filter="url(#filter18_i)">
<path d="M244.991 502.96C246.046 461.583 286.917 443.298 307.697 408.41C329.783 371.328 328.85 330.735 350.864 305.637C387.175 264.239 450.723 303.978 457.558 341.736C459.687 353.497 461.62 368.998 474.852 371.398C488.084 373.799 505.626 362.159 588.878 405.917C672.13 449.674 786.316 560.439 786.316 560.439C786.316 560.439 784.547 564.336 783.458 568.045C781.624 574.286 778.84 575.798 778.84 575.798C778.84 575.798 668.78 483.095 582.876 454.001C517.671 431.918 471.802 429.941 438.756 486.285C404.165 545.262 437.588 589.925 489.056 639.945C547.249 696.502 647.938 741.657 647.938 741.657C647.938 741.657 649.086 746.446 646.337 749.38C643.589 752.315 640.812 754.882 640.812 754.882C640.812 754.882 538.205 711.43 474.198 664.891L473.5 664.384C436.592 637.55 383.207 598.735 367.323 565.191C359.023 547.661 342.592 560.142 329.357 565.817C300.635 578.131 243.626 556.473 244.991 502.96Z" fill="#FF9090"/>
</g>
<path d="M355.594 358.424C343.938 372.629 339.818 391.523 339.818 391.523C339.818 391.523 345.873 375.434 357.462 361.9C368.452 349.065 394.137 335.852 421.961 349.781C453.52 365.58 480.976 417.166 522.543 426.522L530.028 424.651C483.485 412.239 460.8 367.859 424.666 346.128C401.024 331.91 369.964 340.91 355.594 358.424Z" fill="#E4140D"/>
<path d="M295.242 459.073C299.918 444.881 317.92 427.554 317.92 427.554C317.92 427.554 302.006 446.291 298.101 460.829C293.546 477.786 293.098 508.639 321.077 525.82C350.009 543.587 393.349 533.69 429.465 567.532L429.694 571.558C391.952 540.608 357.157 552.163 318.945 529.4C293.942 514.506 288.306 480.124 295.242 459.073Z" fill="#E4140D"/>
<path d="M573.185 422.884C669.402 438.664 778.896 568.482 778.896 568.482L777.51 572.881C777.51 572.881 668.298 440.969 571.952 426.016C520.365 418.01 483.46 455.351 448.052 416.098C436.976 403.819 440.531 389.201 428.551 377.772C420.417 370.012 403.521 364.038 403.521 364.038C403.521 364.038 420.802 368.374 429.56 375.209C442.304 385.156 439.163 398.892 450.182 410.687C485.992 449.021 522.06 414.499 573.185 422.884Z" fill="#E4160E"/>
<path d="M435.108 420.866C443.459 418.888 455.552 421.648 455.552 421.648L466.124 428.18C466.124 428.18 445.982 421.069 435.763 424.475C424.237 428.317 425.582 443.093 413.614 445.598C405.107 447.379 391.179 441.965 391.179 441.965C391.179 441.965 405.443 445.361 413.215 443.097C425.104 439.633 423.024 423.727 435.108 420.866Z" fill="#E4160E"/>
<path d="M441.413 404.062C447.643 407.015 453.825 414.497 453.825 414.497L457.149 423.385C457.149 423.385 448.122 409.491 440 406.438C430.841 402.995 424.223 412.072 415.461 407.652C409.233 404.51 403.241 394.62 403.241 394.62C403.241 394.62 410.462 403.525 416.474 406.032C425.671 409.867 432.398 399.787 441.413 404.062Z" fill="#E4160E"/>
<g filter="url(#filter19_d)">
<path d="M572.718 423.406C667.326 448.85 780.005 571.669 780.005 571.669L779.099 576.606C779.099 576.606 665.019 452.982 570.439 427.232C536.174 417.904 499.173 428.265 471.236 430.299C458.61 431.219 445.643 436.873 439.162 429.689C428.086 417.41 431.641 402.792 419.661 391.363C411.527 383.603 394.631 377.628 394.631 377.628C394.631 377.628 411.912 381.965 420.67 388.8C433.414 398.747 430.274 412.483 441.292 424.278C447.141 430.539 459.29 424.984 471.023 424.54C498.829 423.488 536.843 413.758 572.718 423.406Z" fill="#6896A2"/>
<path d="M426.219 434.455C434.57 432.477 447.503 427.243 447.503 427.243L456.114 432.53C456.114 432.53 437.093 434.658 426.874 438.064C415.348 441.906 416.693 456.682 404.725 459.187C396.218 460.968 382.29 455.554 382.29 455.554C382.29 455.554 396.554 458.95 404.326 456.686C416.215 453.222 414.135 437.316 426.219 434.455Z" fill="#6896A2"/>
<path d="M432.526 417.651C438.755 420.605 444.938 428.086 444.938 428.086L448.112 433.343C448.112 433.343 439.235 423.081 431.113 420.028C421.954 416.585 415.336 425.662 406.574 421.242C400.346 418.1 394.354 408.21 394.354 408.21C394.354 408.21 401.575 417.114 407.587 419.622C416.783 423.457 423.511 413.377 432.526 417.651Z" fill="#6896A2"/>
</g>
<path d="M449.906 623.247C503.484 705.193 652.34 751.277 652.34 751.277L653.421 748.222C653.421 748.222 505.103 703.234 452.216 620.831C423.899 576.71 434.726 532.868 384.95 516.406C369.38 511.257 357.698 520.508 342.521 514.181C332.216 509.885 319.929 496.806 319.929 496.806C319.929 496.806 330.902 510.909 340.63 516.157C354.788 523.794 365.847 515.284 380.959 520.579C430.073 537.786 421.437 579.705 449.906 623.247Z" fill="#E4160E"/>
<path d="M383.936 502.561C385.578 511.044 393.009 521.026 393.009 521.026L403.209 528.065C403.209 528.065 388.571 512.47 387.448 501.685C386.181 489.522 400.011 484.707 397.363 472.685C395.48 464.14 384.912 453.559 384.912 453.559C384.912 453.559 393.804 465.275 394.951 473.343C396.706 485.685 381.56 490.286 383.936 502.561Z" fill="#E4160E"/>
<path d="M371.416 515.233C376.621 519.748 385.876 522.365 385.876 522.365L395.225 521.781C395.225 521.781 379.042 519.175 372.973 512.962C366.129 505.956 371.577 496.159 364.017 489.918C358.643 485.482 347.301 484.026 347.301 484.026C347.301 484.026 358.26 487.015 362.975 491.512C370.188 498.392 363.883 508.7 371.416 515.233Z" fill="#E4160E"/>
<g filter="url(#filter20_d)">
<path d="M447.149 625.784C497.971 690.473 653.8 748.851 653.8 748.851L659.183 748.019C659.183 748.019 500.936 685.495 449.459 623.368C415.877 582.837 428.006 545.717 393.098 503.952C382.537 491.318 365.845 508.054 350.668 501.727C340.364 497.431 328.076 484.352 328.076 484.352C328.076 484.352 339.049 498.455 348.778 503.703C362.936 511.34 379.063 495.594 389.107 508.125C421.216 548.186 414.916 584.756 447.149 625.784Z" fill="#6896A2"/>
<path d="M392.083 490.103C393.725 498.586 397.822 516.864 397.822 516.864L408.868 528.041C408.868 528.041 396.719 500.011 395.595 489.227C394.328 477.064 408.159 472.249 405.51 460.227C403.628 451.681 393.059 441.101 393.059 441.101C393.059 441.101 401.952 452.816 403.099 460.885C404.854 473.227 389.707 477.828 392.083 490.103Z" fill="#6896A2"/>
<path d="M371.12 479.061C378.332 485.94 372.028 496.249 379.56 502.782L381.118 500.511C374.273 493.504 379.721 483.707 372.161 477.466C366.787 473.03 355.445 471.575 355.445 471.575C355.445 471.575 366.405 474.563 371.12 479.061Z" fill="#6896A2"/>
</g>
</g>
<g filter="url(#filter21_f)">
<path d="M296.643 434.932C305.397 419.726 333.98 412.498 333.98 412.498C333.98 412.498 327.175 380.124 338.406 364.814C350.52 348.3 369.518 342.677 389.546 350.1C416.974 360.264 428.713 384.989 435.282 414.727C441.94 444.871 438.277 476.545 438.277 476.545C438.277 476.545 408.836 495.586 384.067 500.714C351.721 507.411 325.749 509.255 306.35 489.783C290.686 474.059 286.064 453.307 296.643 434.932Z" fill="#FF585B"/>
</g>
<g filter="url(#filter22_di)">
<path d="M324.323 437.455C329.956 427.671 350.174 424.14 350.174 424.14C350.174 424.14 343.97 402.187 351.197 392.336C358.992 381.709 371.214 378.09 384.098 382.863C401.742 389.401 409.292 405.309 413.515 424.442C417.796 443.837 420.031 467.038 420.031 467.038C420.031 467.038 396.495 476.471 380.559 479.773C359.75 484.085 343.041 485.274 330.563 472.746C320.487 462.631 317.516 449.279 324.323 437.455Z" fill="#FD002E"/>
</g>
<mask id="mask4" mask-type="alpha" maskUnits="userSpaceOnUse" x="320" y="380" width="101" height="103">
<path d="M324.321 437.458C329.954 427.674 350.171 424.143 350.171 424.143C350.171 424.143 343.968 402.19 351.194 392.339C358.989 381.712 371.211 378.093 384.095 382.866C401.739 389.404 409.289 405.312 413.512 424.445C417.793 443.84 420.028 467.041 420.028 467.041C420.028 467.041 396.492 476.474 380.557 479.776C359.747 484.087 343.038 485.277 330.56 472.749C320.484 462.634 317.513 449.282 324.321 437.458Z" fill="#C80902"/>
</mask>
<g mask="url(#mask4)">
<g filter="url(#filter23_f)">
<path d="M396.791 458.774C387.295 464.855 356.601 476.85 356.601 476.85L387.603 479.58L424.29 467.01C424.29 467.01 406.287 452.694 396.791 458.774Z" fill="#C90225" fill-opacity="0.7"/>
</g>
<g filter="url(#filter24_f)">
<path d="M339.773 432.457C332.561 435.367 322.944 442.827 322.944 442.827C322.944 442.827 329.048 432.298 335.381 428.2C340.065 425.168 348.861 423.076 348.861 423.076C348.861 423.076 345.375 414.416 345.733 408.818C346.155 402.204 352.351 393.454 352.351 393.454C352.351 393.454 352.168 403.668 353.039 410.184C353.993 417.335 361.007 422.306 357.315 428.268C353.687 434.127 346.252 429.842 339.773 432.457Z" fill="#E0012A"/>
<path d="M339.773 432.457C332.561 435.367 322.944 442.827 322.944 442.827C322.944 442.827 329.048 432.298 335.381 428.2C340.065 425.168 348.861 423.076 348.861 423.076C348.861 423.076 345.375 414.416 345.733 408.818C346.155 402.204 352.351 393.454 352.351 393.454C352.351 393.454 352.168 403.668 353.039 410.184C353.993 417.335 361.007 422.306 357.315 428.268C353.687 434.127 346.252 429.842 339.773 432.457Z" stroke="black"/>
</g>
<g filter="url(#filter25_f)">
<path d="M380.234 407.726C385.554 414.031 386.817 427.439 386.817 427.439C386.817 427.439 384.483 422.169 381.431 421.224C376.12 419.58 379.379 430.655 374.504 432.854C368.503 435.56 362.897 432.146 357.808 427.493C352.777 422.894 350.246 418.128 351.075 411.659C352.037 404.142 356.927 398.562 364.635 398.147C371.594 397.772 375.633 402.273 380.234 407.726Z" fill="white" fill-opacity="0.6"/>
</g>
<g filter="url(#filter26_f)">
<path d="M359.507 436.619C364.325 442.336 365.459 454.502 365.459 454.502C365.459 454.502 363.347 449.722 360.582 448.867C355.768 447.379 358.713 457.427 354.292 459.426C348.85 461.887 343.77 458.794 339.161 454.576C334.604 450.407 332.313 446.084 333.069 440.213C333.948 433.39 338.386 428.323 345.374 427.939C351.683 427.593 355.341 431.674 359.507 436.619Z" fill="white" fill-opacity="0.6"/>
</g>
</g>
<rect x="342.254" y="247.704" width="632.861" height="283" transform="rotate(90 342.254 247.704)" fill="url(#pattern3)" fill-opacity="0.05"/>
<rect x="624.254" y="213.712" width="632.861" height="282" transform="rotate(90 624.254 213.712)" fill="url(#pattern4)" fill-opacity="0.05"/>
</g>
<rect width="24.4581" height="131.355" rx="12.229" transform="matrix(-0.260367 0.96551 0.96551 0.260367 504.685 411.952)" fill="#6CB2C3"/>
<rect width="42.0537" height="196.017" rx="21.0269" transform="matrix(-0.260367 0.96551 0.96551 0.260367 567.324 419.977)" fill="#3C3D75"/>
<g filter="url(#filter27_d)">
<path fill-rule="evenodd" clip-rule="evenodd" d="M465.51 515.836C399.164 553.999 314.443 531.152 276.28 464.806C238.116 398.46 260.963 313.739 327.309 275.576C393.655 237.412 478.376 260.259 516.54 326.605C554.703 392.951 531.856 477.672 465.51 515.836ZM450.262 489.323C398.558 519.064 332.533 501.26 302.792 449.556C273.051 397.851 290.856 331.827 342.56 302.086C394.264 272.345 460.289 290.15 490.03 341.854C519.771 393.558 501.966 459.582 450.262 489.323Z" fill="#3C3D75"/>
</g>
<mask id="mask5" mask-type="alpha" maskUnits="userSpaceOnUse" x="207" y="206" width="550" height="379">
<rect width="24.4581" height="131.355" rx="12.229" transform="matrix(-0.260367 0.96551 0.96551 0.260367 504.685 411.958)" fill="#6CB2C3"/>
<rect width="42.0537" height="196.017" rx="21.0269" transform="matrix(-0.260367 0.96551 0.96551 0.260367 567.324 419.984)" fill="#3C3D75"/>
<path fill-rule="evenodd" clip-rule="evenodd" d="M465.51 515.842C399.164 554.005 314.443 531.159 276.28 464.813C238.116 398.467 260.963 313.745 327.309 275.582C393.655 237.419 478.376 260.265 516.54 326.611C554.703 392.957 531.856 477.679 465.51 515.842ZM450.262 489.33C398.558 519.071 332.533 501.266 302.792 449.562C273.051 397.858 290.856 331.834 342.56 302.093C394.264 272.352 460.289 290.156 490.03 341.86C519.771 393.564 501.966 459.589 450.262 489.33Z" fill="#3C3D75"/>
</mask>
<g mask="url(#mask5)">
<rect x="349.253" y="121.704" width="632.861" height="283" transform="rotate(90 349.253 121.704)" fill="url(#pattern5)" fill-opacity="0.05"/>
<rect x="631.253" y="87.7119" width="632.861" height="282" transform="rotate(90 631.253 87.7119)" fill="url(#pattern6)" fill-opacity="0.05"/>
<rect x="913.253" y="97.7098" width="632.861" height="282" transform="rotate(90 913.253 97.7098)" fill="url(#pattern7)" fill-opacity="0.05"/>
</g>
<g filter="url(#filter28_d)">
<path d="M659.235 399.124C656.033 383.167 648.944 370.781 648.944 370.781C648.944 370.781 663.316 373.92 672.324 373.978C689.774 374.09 744.593 371.547 773.612 409.42C783.225 421.967 796.548 460.948 778.504 491.639C771.035 504.344 741.878 525.194 725.572 555.862C713.205 579.121 669.759 663.058 651.033 684.209C651.033 684.209 640.102 702.2 624.831 695.494C612.241 689.965 628.445 658.057 628.445 658.057C628.445 658.057 608.808 693.415 591.483 684.578C570.717 673.987 597.993 641.753 597.993 641.753C597.993 641.753 559.647 676.433 541.67 656.699C521.259 634.293 570.516 610.567 570.516 610.567C570.516 610.567 557.309 607.674 549.697 602.891C542.085 598.108 534.978 589.868 538.058 580.458C542.767 566.071 570.274 569.315 580.981 563.995C585.845 561.578 595.346 555.058 606.868 540.974C632.232 509.969 640.314 488.675 653.264 449.111C658.738 432.39 662.95 417.632 659.235 399.124Z" fill="#6CB2C3"/>
</g>
<mask id="mask6" mask-type="alpha" maskUnits="userSpaceOnUse" x="458" y="332" width="396" height="392">
<path d="M662.585 393.329C659.382 377.371 646.973 370.938 646.973 370.938C646.973 370.938 663.316 373.92 672.324 373.978C689.774 374.09 744.593 371.547 773.612 409.42C783.225 421.967 796.548 460.948 778.504 491.639C771.035 504.344 741.878 525.194 725.572 555.862C713.205 579.121 669.759 663.058 651.033 684.208C651.033 684.208 640.102 702.2 624.831 695.494C612.241 689.965 628.445 658.057 628.445 658.057C628.445 658.057 608.808 693.415 591.483 684.578C570.717 673.987 597.993 641.753 597.993 641.753C597.993 641.753 559.647 676.433 541.67 656.699C521.259 634.293 570.516 610.567 570.516 610.567C570.516 610.567 557.309 607.673 549.697 602.891C542.085 598.108 534.978 589.868 538.058 580.458C542.767 566.071 570.274 569.315 580.981 563.995C585.845 561.578 595.346 555.058 606.868 540.973C632.232 509.969 640.314 488.675 653.264 449.111C658.738 432.389 666.3 411.837 662.585 393.329Z" fill="#E35931"/>
</mask>
<g mask="url(#mask6)">
<rect x="515.254" y="228.705" width="632.861" height="283" transform="rotate(90 515.254 228.705)" fill="url(#pattern8)" fill-opacity="0.05"/>
<rect x="797.254" y="194.712" width="632.861" height="282" transform="rotate(90 797.254 194.712)" fill="url(#pattern9)" fill-opacity="0.05"/>
<rect x="1079.25" y="204.71" width="632.861" height="282" transform="rotate(90 1079.25 204.71)" fill="url(#pattern10)" fill-opacity="0.05"/>
<g filter="url(#filter29_f)">
<rect x="525.845" y="742.553" width="156.408" height="121.507" transform="rotate(-114.883 525.845 742.553)" fill="#313131" fill-opacity="0.2"/>
</g>
<g filter="url(#filter30_f)">
<rect x="737.548" y="590.667" width="156.408" height="51.2572" transform="rotate(-148.628 737.548 590.667)" fill="#313131" fill-opacity="0.2"/>
</g>
<g filter="url(#filter31_f)">
<rect x="680.367" y="681.388" width="175.8" height="51.2572" transform="rotate(-136.6 680.367 681.388)" fill="white" fill-opacity="0.15"/>
</g>
<g filter="url(#filter32_f)">
<rect x="774.205" y="408.48" width="156.408" height="51.2572" transform="rotate(-170.152 774.205 408.48)" fill="#313131" fill-opacity="0.2"/>
</g>
</g>
<g filter="url(#filter33_d)">
<path d="M166.883 606.247C149.142 603.13 132.727 575.252 132.727 575.252C132.727 575.252 134.855 592.026 135.166 601.979C135.768 621.262 130.692 683.885 173.385 714.953C187.529 725.245 222.49 744.225 264.474 718.184C278.325 709.593 300.591 676.817 334.07 657.985C359.462 643.701 451.127 593.465 474.012 572.21C474.012 572.21 491.769 553.486 485.097 541.06C477.455 526.83 450.047 537.771 450.047 537.771C450.047 537.771 479.613 520.753 472.789 506.387C461.811 483.278 432.053 504.2 432.053 504.2C432.053 504.2 459.267 463.893 440.582 452.074C412.233 434.144 390.339 485.174 390.339 485.174C390.339 485.174 387.733 470.651 381.276 462.369C376.23 455.897 366.723 447.276 356.14 450.1C346.65 452.633 344 477.919 339.104 497.973C335.197 513.978 330.629 525.987 317.595 534.279C280.22 558.057 256.101 562.266 213.994 580.899C194.873 589.36 187.46 609.863 166.883 606.247Z" fill="#FF9090"/>
</g>
<mask id="mask7" mask-type="alpha" maskUnits="userSpaceOnUse" x="91" y="368" width="422" height="431">
<path d="M166.883 606.247C149.142 603.13 132.727 575.252 132.727 575.252C132.727 575.252 134.855 592.026 135.166 601.979C135.768 621.262 130.692 683.885 173.385 714.953C187.529 725.245 222.49 744.225 264.474 718.184C278.325 709.593 300.591 676.817 334.07 657.985C359.462 643.701 451.127 593.465 474.012 572.21C474.012 572.21 491.769 553.486 485.097 541.06C477.455 526.83 450.047 537.771 450.047 537.771C450.047 537.771 479.613 520.753 472.789 506.387C461.811 483.278 432.053 504.2 432.053 504.2C432.053 504.2 459.267 463.893 440.582 452.074C412.233 434.144 390.339 485.174 390.339 485.174C390.339 485.174 387.733 470.651 381.276 462.369C376.23 455.897 366.723 447.276 356.14 450.1C346.65 452.633 344 477.919 339.104 497.973C335.197 513.978 330.629 525.987 317.595 534.279C280.22 558.057 256.101 562.266 213.994 580.899C194.873 589.36 187.46 609.863 166.883 606.247Z" fill="#F3A712"/>
</mask>
<g mask="url(#mask7)">
<rect x="162.254" y="232.704" width="632.861" height="283" transform="rotate(90 162.254 232.704)" fill="url(#pattern11)" fill-opacity="0.05"/>
<rect x="444.254" y="198.712" width="632.861" height="282" transform="rotate(90 444.254 198.712)" fill="url(#pattern12)" fill-opacity="0.05"/>
<rect x="726.254" y="208.71" width="632.861" height="282" transform="rotate(90 726.254 208.71)" fill="url(#pattern13)" fill-opacity="0.05"/>
<g filter="url(#filter34_f)">
<rect x="388.234" y="594.182" width="189.991" height="98.5191" transform="rotate(-86.674 388.234 594.182)" fill="white" fill-opacity="0.2"/>
</g>
<g filter="url(#filter35_f)">
<rect x="113.798" y="738.863" width="189.991" height="83.6333" transform="rotate(-86.674 113.798 738.863)" fill="black" fill-opacity="0.2"/>
</g>
</g>
<defs>
<filter id="filter0_d" x="49.2527" y="91.9391" width="862.822" height="817.39" filterUnits="userSpaceOnUse" color-interpolation-filters="sRGB">
<feFlood flood-opacity="0" result="BackgroundImageFix"/>
<feColorMatrix in="SourceAlpha" type="matrix" values="0 0 0 0 0 0 0 0 0 0 0 0 0 0 0 0 0 0 127 0"/>
<feOffset dx="5" dy="4"/>
<feGaussianBlur stdDeviation="10"/>
<feColorMatrix type="matrix" values="0 0 0 0 0 0 0 0 0 0 0 0 0 0 0 0 0 0 0.4 0"/>
<feBlend mode="normal" in2="BackgroundImageFix" result="effect1_dropShadow"/>
<feBlend mode="normal" in="SourceGraphic" in2="effect1_dropShadow" result="shape"/>
</filter>
<pattern id="pattern0" patternContentUnits="objectBoundingBox" width="1" height="1">
<use xlink:href="#image0" transform="translate(0 -0.338597) scale(0.003125 0.0069883)"/>
</pattern>
<pattern id="pattern1" patternContentUnits="objectBoundingBox" width="1" height="1">
<use xlink:href="#image0" transform="translate(0 -0.34157) scale(0.003125 0.00701308)"/>
</pattern>
<pattern id="pattern2" patternContentUnits="objectBoundingBox" width="1" height="1">
<use xlink:href="#image0" transform="translate(0 -0.34157) scale(0.003125 0.00701308)"/>
</pattern>
<filter id="filter1_d" x="95.8925" y="156.486" width="724.374" height="630.003" filterUnits="userSpaceOnUse" color-interpolation-filters="sRGB">
<feFlood flood-opacity="0" result="BackgroundImageFix"/>
<feColorMatrix in="SourceAlpha" type="matrix" values="0 0 0 0 0 0 0 0 0 0 0 0 0 0 0 0 0 0 127 0"/>
<feOffset dx="5" dy="4"/>
<feGaussianBlur stdDeviation="5"/>
<feColorMatrix type="matrix" values="0 0 0 0 0 0 0 0 0 0 0 0 0 0 0 0 0 0 0.3 0"/>
<feBlend mode="normal" in2="BackgroundImageFix" result="effect1_dropShadow"/>
<feBlend mode="normal" in="SourceGraphic" in2="effect1_dropShadow" result="shape"/>
</filter>
<filter id="filter2_i" x="173.836" y="213.562" width="617.857" height="547.271" filterUnits="userSpaceOnUse" color-interpolation-filters="sRGB">
<feFlood flood-opacity="0" result="BackgroundImageFix"/>
<feBlend mode="normal" in="SourceGraphic" in2="BackgroundImageFix" result="shape"/>
<feColorMatrix in="SourceAlpha" type="matrix" values="0 0 0 0 0 0 0 0 0 0 0 0 0 0 0 0 0 0 127 0" result="hardAlpha"/>
<feOffset dx="5" dy="4"/>
<feGaussianBlur stdDeviation="5"/>
<feComposite in2="hardAlpha" operator="arithmetic" k2="-1" k3="1"/>
<feColorMatrix type="matrix" values="0 0 0 0 0 0 0 0 0 0 0 0 0 0 0 0 0 0 0.3 0"/>
<feBlend mode="normal" in2="shape" result="effect1_innerShadow"/>
</filter>
<filter id="filter3_i" x="198.195" y="393.749" width="277.478" height="280.912" filterUnits="userSpaceOnUse" color-interpolation-filters="sRGB">
<feFlood flood-opacity="0" result="BackgroundImageFix"/>
<feBlend mode="normal" in="SourceGraphic" in2="BackgroundImageFix" result="shape"/>
<feColorMatrix in="SourceAlpha" type="matrix" values="0 0 0 0 0 0 0 0 0 0 0 0 0 0 0 0 0 0 127 0" result="hardAlpha"/>
<feOffset dy="4"/>
<feGaussianBlur stdDeviation="5"/>
<feComposite in2="hardAlpha" operator="arithmetic" k2="-1" k3="1"/>
<feColorMatrix type="matrix" values="0 0 0 0 0 0 0 0 0 0 0 0 0 0 0 0 0 0 0.4 0"/>
<feBlend mode="normal" in2="shape" result="effect1_innerShadow"/>
</filter>
<filter id="filter4_i" x="231.771" y="449.618" width="207.974" height="195.103" filterUnits="userSpaceOnUse" color-interpolation-filters="sRGB">
<feFlood flood-opacity="0" result="BackgroundImageFix"/>
<feBlend mode="normal" in="SourceGraphic" in2="BackgroundImageFix" result="shape"/>
<feColorMatrix in="SourceAlpha" type="matrix" values="0 0 0 0 0 0 0 0 0 0 0 0 0 0 0 0 0 0 127 0" result="hardAlpha"/>
<feOffset dy="4"/>
<feGaussianBlur stdDeviation="5"/>
<feComposite in2="hardAlpha" operator="arithmetic" k2="-1" k3="1"/>
<feColorMatrix type="matrix" values="0 0 0 0 0 0 0 0 0 0 0 0 0 0 0 0 0 0 0.4 0"/>
<feBlend mode="normal" in2="shape" result="effect1_innerShadow"/>
</filter>
<filter id="filter5_i" x="302.885" y="243.056" width="326.678" height="206.28" filterUnits="userSpaceOnUse" color-interpolation-filters="sRGB">
<feFlood flood-opacity="0" result="BackgroundImageFix"/>
<feBlend mode="normal" in="SourceGraphic" in2="BackgroundImageFix" result="shape"/>
<feColorMatrix in="SourceAlpha" type="matrix" values="0 0 0 0 0 0 0 0 0 0 0 0 0 0 0 0 0 0 127 0" result="hardAlpha"/>
<feOffset dy="4"/>
<feGaussianBlur stdDeviation="5"/>
<feComposite in2="hardAlpha" operator="arithmetic" k2="-1" k3="1"/>
<feColorMatrix type="matrix" values="0 0 0 0 0 0 0 0 0 0 0 0 0 0 0 0 0 0 0.4 0"/>
<feBlend mode="normal" in2="shape" result="effect1_innerShadow"/>
</filter>
<filter id="filter6_i" x="327.463" y="268.158" width="246.485" height="148.521" filterUnits="userSpaceOnUse" color-interpolation-filters="sRGB">
<feFlood flood-opacity="0" result="BackgroundImageFix"/>
<feBlend mode="normal" in="SourceGraphic" in2="BackgroundImageFix" result="shape"/>
<feColorMatrix in="SourceAlpha" type="matrix" values="0 0 0 0 0 0 0 0 0 0 0 0 0 0 0 0 0 0 127 0" result="hardAlpha"/>
<feOffset dy="4"/>
<feGaussianBlur stdDeviation="5"/>
<feComposite in2="hardAlpha" operator="arithmetic" k2="-1" k3="1"/>
<feColorMatrix type="matrix" values="0 0 0 0 0 0 0 0 0 0 0 0 0 0 0 0 0 0 0.4 0"/>
<feBlend mode="normal" in2="shape" result="effect1_innerShadow"/>
</filter>
<filter id="filter7_i" x="391.593" y="398.303" width="223.931" height="250.14" filterUnits="userSpaceOnUse" color-interpolation-filters="sRGB">
<feFlood flood-opacity="0" result="BackgroundImageFix"/>
<feBlend mode="normal" in="SourceGraphic" in2="BackgroundImageFix" result="shape"/>
<feColorMatrix in="SourceAlpha" type="matrix" values="0 0 0 0 0 0 0 0 0 0 0 0 0 0 0 0 0 0 127 0" result="hardAlpha"/>
<feOffset dx="-4" dy="4"/>
<feGaussianBlur stdDeviation="5"/>
<feComposite in2="hardAlpha" operator="arithmetic" k2="-1" k3="1"/>
<feColorMatrix type="matrix" values="0 0 0 0 0 0 0 0 0 0 0 0 0 0 0 0 0 0 0.4 0"/>
<feBlend mode="normal" in2="shape" result="effect1_innerShadow"/>
</filter>
<filter id="filter8_i" x="241.794" y="287.932" width="535.007" height="472.363" filterUnits="userSpaceOnUse" color-interpolation-filters="sRGB">
<feFlood flood-opacity="0" result="BackgroundImageFix"/>
<feBlend mode="normal" in="SourceGraphic" in2="BackgroundImageFix" result="shape"/>
<feColorMatrix in="SourceAlpha" type="matrix" values="0 0 0 0 0 0 0 0 0 0 0 0 0 0 0 0 0 0 127 0" result="hardAlpha"/>
<feOffset dx="5" dy="4"/>
<feGaussianBlur stdDeviation="5"/>
<feComposite in2="hardAlpha" operator="arithmetic" k2="-1" k3="1"/>
<feColorMatrix type="matrix" values="0 0 0 0 0 0 0 0 0 0 0 0 0 0 0 0 0 0 0.3 0"/>
<feBlend mode="normal" in2="shape" result="effect1_innerShadow"/>
</filter>
<filter id="filter9_d" x="324.43" y="441.68" width="360.094" height="311.729" filterUnits="userSpaceOnUse" color-interpolation-filters="sRGB">
<feFlood flood-opacity="0" result="BackgroundImageFix"/>
<feColorMatrix in="SourceAlpha" type="matrix" values="0 0 0 0 0 0 0 0 0 0 0 0 0 0 0 0 0 0 127 0"/>
<feOffset dy="4"/>
<feGaussianBlur stdDeviation="2"/>
<feColorMatrix type="matrix" values="0 0 0 0 0 0 0 0 0 0 0 0 0 0 0 0 0 0 0.25 0"/>
<feBlend mode="normal" in2="BackgroundImageFix" result="effect1_dropShadow"/>
<feBlend mode="normal" in="SourceGraphic" in2="effect1_dropShadow" result="shape"/>
</filter>
<filter id="filter10_d" x="379.063" y="379.552" width="399.279" height="183.307" filterUnits="userSpaceOnUse" color-interpolation-filters="sRGB">
<feFlood flood-opacity="0" result="BackgroundImageFix"/>
<feColorMatrix in="SourceAlpha" type="matrix" values="0 0 0 0 0 0 0 0 0 0 0 0 0 0 0 0 0 0 127 0"/>
<feOffset dy="4"/>
<feGaussianBlur stdDeviation="2"/>
<feColorMatrix type="matrix" values="0 0 0 0 0 0 0 0 0 0 0 0 0 0 0 0 0 0 0.25 0"/>
<feBlend mode="normal" in2="BackgroundImageFix" result="effect1_dropShadow"/>
<feBlend mode="normal" in="SourceGraphic" in2="effect1_dropShadow" result="shape"/>
</filter>
<filter id="filter11_d" x="101.194" y="151.397" width="708.309" height="647.535" filterUnits="userSpaceOnUse" color-interpolation-filters="sRGB">
<feFlood flood-opacity="0" result="BackgroundImageFix"/>
<feColorMatrix in="SourceAlpha" type="matrix" values="0 0 0 0 0 0 0 0 0 0 0 0 0 0 0 0 0 0 127 0"/>
<feOffset dx="5" dy="4"/>
<feGaussianBlur stdDeviation="5"/>
<feColorMatrix type="matrix" values="0 0 0 0 0 0 0 0 0 0 0 0 0 0 0 0 0 0 0.4 0"/>
<feBlend mode="normal" in2="BackgroundImageFix" result="effect1_dropShadow"/>
<feBlend mode="normal" in="SourceGraphic" in2="effect1_dropShadow" result="shape"/>
</filter>
<filter id="filter12_i" x="172.566" y="217.624" width="609.792" height="555.39" filterUnits="userSpaceOnUse" color-interpolation-filters="sRGB">
<feFlood flood-opacity="0" result="BackgroundImageFix"/>
<feBlend mode="normal" in="SourceGraphic" in2="BackgroundImageFix" result="shape"/>
<feColorMatrix in="SourceAlpha" type="matrix" values="0 0 0 0 0 0 0 0 0 0 0 0 0 0 0 0 0 0 127 0" result="hardAlpha"/>
<feOffset dx="5" dy="4"/>
<feGaussianBlur stdDeviation="5"/>
<feComposite in2="hardAlpha" operator="arithmetic" k2="-1" k3="1"/>
<feColorMatrix type="matrix" values="0 0 0 0 0 0 0 0 0 0 0 0 0 0 0 0 0 0 0.3 0"/>
<feBlend mode="normal" in2="shape" result="effect1_innerShadow"/>
</filter>
<filter id="filter13_i" x="307.474" y="236.763" width="314.01" height="192.895" filterUnits="userSpaceOnUse" color-interpolation-filters="sRGB">
<feFlood flood-opacity="0" result="BackgroundImageFix"/>
<feBlend mode="normal" in="SourceGraphic" in2="BackgroundImageFix" result="shape"/>
<feColorMatrix in="SourceAlpha" type="matrix" values="0 0 0 0 0 0 0 0 0 0 0 0 0 0 0 0 0 0 127 0" result="hardAlpha"/>
<feOffset dy="4"/>
<feGaussianBlur stdDeviation="5"/>
<feComposite in2="hardAlpha" operator="arithmetic" k2="-1" k3="1"/>
<feColorMatrix type="matrix" values="0 0 0 0 0 0 0 0 0 0 0 0 0 0 0 0 0 0 0.4 0"/>
<feBlend mode="normal" in2="shape" result="effect1_innerShadow"/>
</filter>
<filter id="filter14_i" x="338.472" y="268.279" width="240.214" height="142.974" filterUnits="userSpaceOnUse" color-interpolation-filters="sRGB">
<feFlood flood-opacity="0" result="BackgroundImageFix"/>
<feBlend mode="normal" in="SourceGraphic" in2="BackgroundImageFix" result="shape"/>
<feColorMatrix in="SourceAlpha" type="matrix" values="0 0 0 0 0 0 0 0 0 0 0 0 0 0 0 0 0 0 127 0" result="hardAlpha"/>
<feOffset dy="4"/>
<feGaussianBlur stdDeviation="5"/>
<feComposite in2="hardAlpha" operator="arithmetic" k2="-1" k3="1"/>
<feColorMatrix type="matrix" values="0 0 0 0 0 0 0 0 0 0 0 0 0 0 0 0 0 0 0.4 0"/>
<feBlend mode="normal" in2="shape" result="effect1_innerShadow"/>
</filter>
<filter id="filter15_i" x="201.105" y="386.109" width="293.655" height="288.666" filterUnits="userSpaceOnUse" color-interpolation-filters="sRGB">
<feFlood flood-opacity="0" result="BackgroundImageFix"/>
<feBlend mode="normal" in="SourceGraphic" in2="BackgroundImageFix" result="shape"/>
<feColorMatrix in="SourceAlpha" type="matrix" values="0 0 0 0 0 0 0 0 0 0 0 0 0 0 0 0 0 0 127 0" result="hardAlpha"/>
<feOffset dy="4"/>
<feGaussianBlur stdDeviation="5"/>
<feComposite in2="hardAlpha" operator="arithmetic" k2="-1" k3="1"/>
<feColorMatrix type="matrix" values="0 0 0 0 0 0 0 0 0 0 0 0 0 0 0 0 0 0 0.4 0"/>
<feBlend mode="normal" in2="shape" result="effect1_innerShadow"/>
</filter>
<filter id="filter16_i" x="226.715" y="428.756" width="215.397" height="209.073" filterUnits="userSpaceOnUse" color-interpolation-filters="sRGB">
<feFlood flood-opacity="0" result="BackgroundImageFix"/>
<feBlend mode="normal" in="SourceGraphic" in2="BackgroundImageFix" result="shape"/>
<feColorMatrix in="SourceAlpha" type="matrix" values="0 0 0 0 0 0 0 0 0 0 0 0 0 0 0 0 0 0 127 0" result="hardAlpha"/>
<feOffset dy="4"/>
<feGaussianBlur stdDeviation="5"/>
<feComposite in2="hardAlpha" operator="arithmetic" k2="-1" k3="1"/>
<feColorMatrix type="matrix" values="0 0 0 0 0 0 0 0 0 0 0 0 0 0 0 0 0 0 0.4 0"/>
<feBlend mode="normal" in2="shape" result="effect1_innerShadow"/>
</filter>
<filter id="filter17_i" x="380.72" y="416.365" width="230.456" height="238.781" filterUnits="userSpaceOnUse" color-interpolation-filters="sRGB">
<feFlood flood-opacity="0" result="BackgroundImageFix"/>
<feBlend mode="normal" in="SourceGraphic" in2="BackgroundImageFix" result="shape"/>
<feColorMatrix in="SourceAlpha" type="matrix" values="0 0 0 0 0 0 0 0 0 0 0 0 0 0 0 0 0 0 127 0" result="hardAlpha"/>
<feOffset dx="-4" dy="4"/>
<feGaussianBlur stdDeviation="5"/>
<feComposite in2="hardAlpha" operator="arithmetic" k2="-1" k3="1"/>
<feColorMatrix type="matrix" values="0 0 0 0 0 0 0 0 0 0 0 0 0 0 0 0 0 0 0.4 0"/>
<feBlend mode="normal" in2="shape" result="effect1_innerShadow"/>
</filter>
<filter id="filter18_i" x="244.967" y="288.041" width="546.349" height="470.841" filterUnits="userSpaceOnUse" color-interpolation-filters="sRGB">
<feFlood flood-opacity="0" result="BackgroundImageFix"/>
<feBlend mode="normal" in="SourceGraphic" in2="BackgroundImageFix" result="shape"/>
<feColorMatrix in="SourceAlpha" type="matrix" values="0 0 0 0 0 0 0 0 0 0 0 0 0 0 0 0 0 0 127 0" result="hardAlpha"/>
<feOffset dx="5" dy="4"/>
<feGaussianBlur stdDeviation="5"/>
<feComposite in2="hardAlpha" operator="arithmetic" k2="-1" k3="1"/>
<feColorMatrix type="matrix" values="0 0 0 0 0 0 0 0 0 0 0 0 0 0 0 0 0 0 0.3 0"/>
<feBlend mode="normal" in2="shape" result="effect1_innerShadow"/>
</filter>
<filter id="filter19_d" x="378.29" y="377.628" width="405.715" height="206.978" filterUnits="userSpaceOnUse" color-interpolation-filters="sRGB">
<feFlood flood-opacity="0" result="BackgroundImageFix"/>
<feColorMatrix in="SourceAlpha" type="matrix" values="0 0 0 0 0 0 0 0 0 0 0 0 0 0 0 0 0 0 127 0"/>
<feOffset dy="4"/>
<feGaussianBlur stdDeviation="2"/>
<feColorMatrix type="matrix" values="0 0 0 0 0 0 0 0 0 0 0 0 0 0 0 0 0 0 0.25 0"/>
<feBlend mode="normal" in2="BackgroundImageFix" result="effect1_dropShadow"/>
<feBlend mode="normal" in="SourceGraphic" in2="effect1_dropShadow" result="shape"/>
</filter>
<filter id="filter20_d" x="324.076" y="441.101" width="339.107" height="315.75" filterUnits="userSpaceOnUse" color-interpolation-filters="sRGB">
<feFlood flood-opacity="0" result="BackgroundImageFix"/>
<feColorMatrix in="SourceAlpha" type="matrix" values="0 0 0 0 0 0 0 0 0 0 0 0 0 0 0 0 0 0 127 0"/>
<feOffset dy="4"/>
<feGaussianBlur stdDeviation="2"/>
<feColorMatrix type="matrix" values="0 0 0 0 0 0 0 0 0 0 0 0 0 0 0 0 0 0 0.25 0"/>
<feBlend mode="normal" in2="BackgroundImageFix" result="effect1_dropShadow"/>
<feBlend mode="normal" in="SourceGraphic" in2="effect1_dropShadow" result="shape"/>
</filter>
<filter id="filter21_f" x="240.932" y="296.881" width="248.35" height="258.489" filterUnits="userSpaceOnUse" color-interpolation-filters="sRGB">
<feFlood flood-opacity="0" result="BackgroundImageFix"/>
<feBlend mode="normal" in="SourceGraphic" in2="BackgroundImageFix" result="shape"/>
<feGaussianBlur stdDeviation="25" result="effect1_foregroundBlur"/>
</filter>
<filter id="filter22_di" x="305.647" y="365.794" width="129.383" height="131.977" filterUnits="userSpaceOnUse" color-interpolation-filters="sRGB">
<feFlood flood-opacity="0" result="BackgroundImageFix"/>
<feColorMatrix in="SourceAlpha" type="matrix" values="0 0 0 0 0 0 0 0 0 0 0 0 0 0 0 0 0 0 127 0"/>
<feOffset/>
<feGaussianBlur stdDeviation="7.5"/>
<feColorMatrix type="matrix" values="0 0 0 0 0 0 0 0 0 0 0 0 0 0 0 0 0 0 0.4 0"/>
<feBlend mode="normal" in2="BackgroundImageFix" result="effect1_dropShadow"/>
<feBlend mode="normal" in="SourceGraphic" in2="effect1_dropShadow" result="shape"/>
<feColorMatrix in="SourceAlpha" type="matrix" values="0 0 0 0 0 0 0 0 0 0 0 0 0 0 0 0 0 0 127 0" result="hardAlpha"/>
<feOffset dx="-2"/>
<feGaussianBlur stdDeviation="5"/>
<feComposite in2="hardAlpha" operator="arithmetic" k2="-1" k3="1"/>
<feColorMatrix type="matrix" values="0 0 0 0 0 0 0 0 0 0 0 0 0 0 0 0 0 0 0.25 0"/>
<feBlend mode="normal" in2="shape" result="effect2_innerShadow"/>
</filter>
<filter id="filter23_f" x="326.601" y="427.27" width="127.689" height="82.3097" filterUnits="userSpaceOnUse" color-interpolation-filters="sRGB">
<feFlood flood-opacity="0" result="BackgroundImageFix"/>
<feBlend mode="normal" in="SourceGraphic" in2="BackgroundImageFix" result="shape"/>
<feGaussianBlur stdDeviation="15" result="effect1_foregroundBlur"/>
</filter>
<filter id="filter24_f" x="292.515" y="361.845" width="96.3624" height="111.382" filterUnits="userSpaceOnUse" color-interpolation-filters="sRGB">
<feFlood flood-opacity="0" result="BackgroundImageFix"/>
<feBlend mode="normal" in="SourceGraphic" in2="BackgroundImageFix" result="shape"/>
<feGaussianBlur stdDeviation="15" result="effect1_foregroundBlur"/>
</filter>
<filter id="filter25_f" x="320.92" y="368.125" width="95.8977" height="95.6877" filterUnits="userSpaceOnUse" color-interpolation-filters="sRGB">
<feFlood flood-opacity="0" result="BackgroundImageFix"/>
<feBlend mode="normal" in="SourceGraphic" in2="BackgroundImageFix" result="shape"/>
<feGaussianBlur stdDeviation="15" result="effect1_foregroundBlur"/>
</filter>
<filter id="filter26_f" x="312.927" y="407.919" width="72.5324" height="72.3811" filterUnits="userSpaceOnUse" color-interpolation-filters="sRGB">
<feFlood flood-opacity="0" result="BackgroundImageFix"/>
<feBlend mode="normal" in="SourceGraphic" in2="BackgroundImageFix" result="shape"/>
<feGaussianBlur stdDeviation="10" result="effect1_foregroundBlur"/>
</filter>
<pattern id="pattern3" patternContentUnits="objectBoundingBox" width="1" height="1">
<use xlink:href="#image0" transform="translate(0 -0.338597) scale(0.003125 0.0069883)"/>
</pattern>
<pattern id="pattern4" patternContentUnits="objectBoundingBox" width="1" height="1">
<use xlink:href="#image0" transform="translate(0 -0.34157) scale(0.003125 0.00701308)"/>
</pattern>
<filter id="filter27_d" x="197.179" y="200.475" width="398.461" height="398.461" filterUnits="userSpaceOnUse" color-interpolation-filters="sRGB">
<feFlood flood-opacity="0" result="BackgroundImageFix"/>
<feColorMatrix in="SourceAlpha" type="matrix" values="0 0 0 0 0 0 0 0 0 0 0 0 0 0 0 0 0 0 127 0"/>
<feOffset dy="4"/>
<feGaussianBlur stdDeviation="5"/>
<feColorMatrix type="matrix" values="0 0 0 0 0 0 0 0 0 0 0 0 0 0 0 0 0 0 0.4 0"/>
<feBlend mode="normal" in2="BackgroundImageFix" result="effect1_dropShadow"/>
<feBlend mode="normal" in="SourceGraphic" in2="effect1_dropShadow" result="shape"/>
</filter>
<pattern id="pattern5" patternContentUnits="objectBoundingBox" width="1" height="1">
<use xlink:href="#image0" transform="translate(0 -0.338597) scale(0.003125 0.0069883)"/>
</pattern>
<pattern id="pattern6" patternContentUnits="objectBoundingBox" width="1" height="1">
<use xlink:href="#image0" transform="translate(0 -0.34157) scale(0.003125 0.00701308)"/>
</pattern>
<pattern id="pattern7" patternContentUnits="objectBoundingBox" width="1" height="1">
<use xlink:href="#image0" transform="translate(0 -0.34157) scale(0.003125 0.00701308)"/>
</pattern>
<filter id="filter28_d" x="452.45" y="327.364" width="415.294" height="410.093" filterUnits="userSpaceOnUse" color-interpolation-filters="sRGB">
<feFlood flood-opacity="0" result="BackgroundImageFix"/>
<feColorMatrix in="SourceAlpha" type="matrix" values="0 0 0 0 0 0 0 0 0 0 0 0 0 0 0 0 0 0 127 0"/>
<feOffset dx="4" dy="4"/>
<feGaussianBlur stdDeviation="5"/>
<feColorMatrix type="matrix" values="0 0 0 0 0 0 0 0 0 0 0 0 0 0 0 0 0 0 0.5 0"/>
<feBlend mode="normal" in2="BackgroundImageFix" result="effect1_dropShadow"/>
<feBlend mode="normal" in="SourceGraphic" in2="effect1_dropShadow" result="shape"/>
</filter>
<pattern id="pattern8" patternContentUnits="objectBoundingBox" width="1" height="1">
<use xlink:href="#image0" transform="translate(0 -0.338597) scale(0.003125 0.0069883)"/>
</pattern>
<pattern id="pattern9" patternContentUnits="objectBoundingBox" width="1" height="1">
<use xlink:href="#image0" transform="translate(0 -0.34157) scale(0.003125 0.00701308)"/>
</pattern>
<pattern id="pattern10" patternContentUnits="objectBoundingBox" width="1" height="1">
<use xlink:href="#image0" transform="translate(0 -0.34157) scale(0.003125 0.00701308)"/>
</pattern>
<filter id="filter29_f" x="380.033" y="469.538" width="336.039" height="353.015" filterUnits="userSpaceOnUse" color-interpolation-filters="sRGB">
<feFlood flood-opacity="0" result="BackgroundImageFix"/>
<feBlend mode="normal" in="SourceGraphic" in2="BackgroundImageFix" result="shape"/>
<feGaussianBlur stdDeviation="40" result="effect1_foregroundBlur"/>
</filter>
<filter id="filter30_f" x="524.006" y="385.478" width="320.226" height="285.189" filterUnits="userSpaceOnUse" color-interpolation-filters="sRGB">
<feFlood flood-opacity="0" result="BackgroundImageFix"/>
<feBlend mode="normal" in="SourceGraphic" in2="BackgroundImageFix" result="shape"/>
<feGaussianBlur stdDeviation="40" result="effect1_foregroundBlur"/>
</filter>
<filter id="filter31_f" x="472.636" y="443.355" width="322.949" height="318.033" filterUnits="userSpaceOnUse" color-interpolation-filters="sRGB">
<feFlood flood-opacity="0" result="BackgroundImageFix"/>
<feBlend mode="normal" in="SourceGraphic" in2="BackgroundImageFix" result="shape"/>
<feGaussianBlur stdDeviation="40" result="effect1_foregroundBlur"/>
</filter>
<filter id="filter32_f" x="540.102" y="251.226" width="322.87" height="237.254" filterUnits="userSpaceOnUse" color-interpolation-filters="sRGB">
<feFlood flood-opacity="0" result="BackgroundImageFix"/>
<feBlend mode="normal" in="SourceGraphic" in2="BackgroundImageFix" result="shape"/>
<feGaussianBlur stdDeviation="40" result="effect1_foregroundBlur"/>
</filter>
<filter id="filter33_d" x="79.9384" y="368.041" width="436.866" height="446.844" filterUnits="userSpaceOnUse" color-interpolation-filters="sRGB">
<feFlood flood-opacity="0" result="BackgroundImageFix"/>
<feColorMatrix in="SourceAlpha" type="matrix" values="0 0 0 0 0 0 0 0 0 0 0 0 0 0 0 0 0 0 127 0"/>
<feOffset dx="-4" dy="8"/>
<feGaussianBlur stdDeviation="4"/>
<feColorMatrix type="matrix" values="0 0 0 0 0 0 0 0 0 0 0 0 0 0 0 0 0 0 0.5 0"/>
<feBlend mode="normal" in2="BackgroundImageFix" result="effect1_dropShadow"/>
<feBlend mode="normal" in="SourceGraphic" in2="effect1_dropShadow" result="shape"/>
</filter>
<pattern id="pattern11" patternContentUnits="objectBoundingBox" width="1" height="1">
<use xlink:href="#image0" transform="translate(0 -0.338597) scale(0.003125 0.0069883)"/>
</pattern>
<pattern id="pattern12" patternContentUnits="objectBoundingBox" width="1" height="1">
<use xlink:href="#image0" transform="translate(0 -0.34157) scale(0.003125 0.00701308)"/>
</pattern>
<pattern id="pattern13" patternContentUnits="objectBoundingBox" width="1" height="1">
<use xlink:href="#image0" transform="translate(0 -0.34157) scale(0.003125 0.00701308)"/>
</pattern>
<filter id="filter34_f" x="308.234" y="324.512" width="269.376" height="355.386" filterUnits="userSpaceOnUse" color-interpolation-filters="sRGB">
<feFlood flood-opacity="0" result="BackgroundImageFix"/>
<feBlend mode="normal" in="SourceGraphic" in2="BackgroundImageFix" result="shape"/>
<feGaussianBlur stdDeviation="40" result="effect1_foregroundBlur"/>
</filter>
<filter id="filter35_f" x="33.7982" y="469.192" width="254.515" height="354.523" filterUnits="userSpaceOnUse" color-interpolation-filters="sRGB">
<feFlood flood-opacity="0" result="BackgroundImageFix"/>
<feBlend mode="normal" in="SourceGraphic" in2="BackgroundImageFix" result="shape"/>
<feGaussianBlur stdDeviation="40" result="effect1_foregroundBlur"/>
</filter>
</defs>
</svg>
